<svg xmlns="http://www.w3.org/2000/svg" xmlns:xlink="http://www.w3.org/1999/xlink" width="1920" zoomAndPan="magnify" viewBox="200 150 1040 510" height="1080" preserveAspectRatio="xMidYMid meet" version="1.0"><defs><clipPath id="3aa0a23842"><path d="M 692 405 L 733.800781 405 L 733.800781 443 L 692 443 Z M 692 405 " clip-rule="nonzero"/></clipPath><clipPath id="2f7cd75bf2"><path d="M 618.300781 315.773438 L 733.800781 315.773438 L 733.800781 494.273438 L 618.300781 494.273438 Z M 618.300781 315.773438 " clip-rule="nonzero"/></clipPath><clipPath id="5a1bce94e1"><path d="M 733.5 309 L 820 309 L 820 484 L 733.5 484 Z M 733.5 309 " clip-rule="nonzero"/></clipPath><clipPath id="7e07f6cade"><path d="M 733.5 309 L 821.25 309 L 821.25 486 L 733.5 486 Z M 733.5 309 " clip-rule="nonzero"/></clipPath><clipPath id="aa2189beb4"><path d="M 728.472656 290 L 738.972656 290 L 738.972656 520 L 728.472656 520 Z M 728.472656 290 " clip-rule="nonzero"/></clipPath></defs><path fill="#000000" d="M 659.285156 405.023438 C 658.671875 405.023438 658.066406 405.050781 657.457031 405.113281 C 656.851562 405.171875 656.246094 405.261719 655.648438 405.378906 C 655.050781 405.5 654.460938 405.644531 653.875 405.824219 C 653.292969 406 652.71875 406.203125 652.15625 406.4375 C 651.589844 406.671875 651.039062 406.929688 650.503906 407.21875 C 649.964844 407.503906 649.441406 407.816406 648.933594 408.15625 C 648.425781 408.492188 647.9375 408.855469 647.464844 409.242188 C 646.992188 409.628906 646.542969 410.035156 646.109375 410.464844 C 645.679688 410.894531 645.269531 411.347656 644.882812 411.816406 C 644.496094 412.289062 644.132812 412.777344 643.792969 413.28125 C 643.457031 413.789062 643.140625 414.308594 642.855469 414.847656 C 642.566406 415.382812 642.304688 415.933594 642.074219 416.496094 C 641.839844 417.058594 641.632812 417.628906 641.457031 418.210938 C 641.28125 418.792969 641.132812 419.382812 641.011719 419.980469 C 640.894531 420.578125 640.804688 421.179688 640.746094 421.785156 C 640.683594 422.390625 640.65625 423 640.65625 423.605469 C 640.65625 424.214844 640.683594 424.824219 640.746094 425.429688 C 640.804688 426.035156 640.894531 426.636719 641.011719 427.234375 C 641.132812 427.828125 641.28125 428.417969 641.457031 429.003906 C 641.632812 429.585938 641.839844 430.15625 642.074219 430.71875 C 642.304688 431.28125 642.566406 431.832031 642.855469 432.367188 C 643.140625 432.90625 643.457031 433.425781 643.792969 433.933594 C 644.132812 434.4375 644.496094 434.925781 644.882812 435.398438 C 645.269531 435.867188 645.679688 436.316406 646.109375 436.75 C 646.542969 437.179688 646.992188 437.585938 647.464844 437.972656 C 647.9375 438.359375 648.425781 438.722656 648.933594 439.058594 C 649.441406 439.398438 649.964844 439.710938 650.503906 439.996094 C 651.039062 440.285156 651.589844 440.542969 652.15625 440.777344 C 652.71875 441.011719 653.292969 441.214844 653.875 441.390625 C 654.460938 441.566406 655.050781 441.714844 655.648438 441.835938 C 656.246094 441.953125 656.851562 442.042969 657.457031 442.101562 C 658.066406 442.160156 658.671875 442.191406 659.285156 442.191406 C 659.894531 442.191406 660.503906 442.160156 661.109375 442.101562 C 661.71875 442.042969 662.320312 441.953125 662.917969 441.835938 C 663.515625 441.714844 664.109375 441.566406 664.691406 441.390625 C 665.277344 441.214844 665.847656 441.011719 666.414062 440.777344 C 666.976562 440.542969 667.527344 440.285156 668.066406 439.996094 C 668.605469 439.710938 669.125 439.398438 669.632812 439.058594 C 670.140625 438.722656 670.628906 438.359375 671.101562 437.972656 C 671.574219 437.585938 672.023438 437.179688 672.457031 436.75 C 672.886719 436.316406 673.296875 435.867188 673.683594 435.398438 C 674.070312 434.925781 674.433594 434.4375 674.773438 433.933594 C 675.113281 433.425781 675.425781 432.90625 675.714844 432.367188 C 676 431.832031 676.261719 431.28125 676.496094 430.71875 C 676.726562 430.15625 676.933594 429.585938 677.109375 429.003906 C 677.289062 428.417969 677.4375 427.828125 677.554688 427.234375 C 677.675781 426.636719 677.761719 426.035156 677.824219 425.429688 C 677.882812 424.824219 677.914062 424.214844 677.914062 423.605469 C 677.914062 423 677.882812 422.390625 677.820312 421.785156 C 677.761719 421.179688 677.671875 420.578125 677.550781 419.984375 C 677.433594 419.386719 677.285156 418.796875 677.105469 418.214844 C 676.929688 417.632812 676.722656 417.058594 676.488281 416.5 C 676.253906 415.9375 675.996094 415.386719 675.707031 414.851562 C 675.417969 414.3125 675.105469 413.792969 674.765625 413.285156 C 674.429688 412.78125 674.066406 412.292969 673.679688 411.824219 C 673.289062 411.351562 672.882812 410.902344 672.449219 410.472656 C 672.019531 410.042969 671.566406 409.632812 671.097656 409.246094 C 670.625 408.859375 670.136719 408.5 669.628906 408.160156 C 669.121094 407.824219 668.597656 407.511719 668.0625 407.222656 C 667.523438 406.9375 666.972656 406.675781 666.410156 406.441406 C 665.847656 406.210938 665.273438 406.003906 664.6875 405.828125 C 664.105469 405.648438 663.515625 405.503906 662.917969 405.382812 C 662.320312 405.265625 661.714844 405.175781 661.109375 405.113281 C 660.503906 405.054688 659.894531 405.023438 659.285156 405.023438 Z M 659.285156 434.757812 C 658.550781 434.757812 657.824219 434.6875 657.101562 434.542969 C 656.382812 434.402344 655.683594 434.1875 655.007812 433.910156 C 654.328125 433.628906 653.683594 433.285156 653.074219 432.878906 C 652.464844 432.472656 651.898438 432.007812 651.378906 431.492188 C 650.859375 430.972656 650.398438 430.410156 649.988281 429.800781 C 649.582031 429.195312 649.238281 428.550781 648.957031 427.875 C 648.675781 427.199219 648.464844 426.5 648.320312 425.78125 C 648.179688 425.066406 648.105469 424.339844 648.105469 423.605469 C 648.105469 422.875 648.179688 422.148438 648.320312 421.433594 C 648.464844 420.714844 648.675781 420.015625 648.957031 419.339844 C 649.238281 418.664062 649.582031 418.019531 649.988281 417.410156 C 650.398438 416.804688 650.859375 416.238281 651.378906 415.722656 C 651.898438 415.203125 652.464844 414.742188 653.074219 414.335938 C 653.683594 413.929688 654.328125 413.585938 655.007812 413.304688 C 655.683594 413.023438 656.382812 412.8125 657.101562 412.671875 C 657.824219 412.527344 658.550781 412.457031 659.285156 412.457031 C 660.019531 412.457031 660.746094 412.527344 661.464844 412.671875 C 662.183594 412.8125 662.882812 413.023438 663.5625 413.304688 C 664.238281 413.585938 664.882812 413.929688 665.492188 414.335938 C 666.105469 414.742188 666.667969 415.203125 667.1875 415.722656 C 667.707031 416.238281 668.167969 416.804688 668.578125 417.410156 C 668.984375 418.019531 669.328125 418.664062 669.609375 419.339844 C 669.890625 420.015625 670.101562 420.714844 670.246094 421.433594 C 670.390625 422.148438 670.460938 422.875 670.460938 423.605469 C 670.460938 424.339844 670.386719 425.0625 670.246094 425.78125 C 670.101562 426.5 669.886719 427.195312 669.605469 427.871094 C 669.324219 428.546875 668.980469 429.191406 668.574219 429.800781 C 668.164062 430.40625 667.703125 430.96875 667.183594 431.488281 C 666.664062 432.003906 666.101562 432.46875 665.492188 432.875 C 664.878906 433.28125 664.238281 433.625 663.558594 433.90625 C 662.882812 434.1875 662.183594 434.398438 661.464844 434.542969 C 660.742188 434.683594 660.015625 434.757812 659.285156 434.757812 Z M 659.285156 434.757812 " fill-opacity="1" fill-rule="nonzero"/><g clip-path="url(#3aa0a23842)"><path fill="#000000" d="M 771.058594 405.023438 L 696.542969 405.023438 C 696.277344 405.023438 696.015625 405.050781 695.757812 405.105469 C 695.5 405.160156 695.25 405.242188 695.011719 405.351562 C 694.769531 405.460938 694.542969 405.59375 694.328125 405.75 C 694.117188 405.90625 693.921875 406.082031 693.75 406.28125 C 693.574219 406.476562 693.421875 406.691406 693.292969 406.921875 C 693.164062 407.148438 693.058594 407.390625 692.980469 407.644531 C 692.902344 407.894531 692.855469 408.152344 692.832031 408.414062 C 692.808594 408.675781 692.8125 408.9375 692.84375 409.199219 L 696.570312 438.9375 C 696.628906 439.386719 696.761719 439.808594 696.972656 440.210938 C 697.183594 440.613281 697.460938 440.960938 697.800781 441.261719 C 698.140625 441.5625 698.523438 441.792969 698.949219 441.953125 C 699.375 442.113281 699.8125 442.191406 700.269531 442.191406 L 767.332031 442.191406 C 767.785156 442.191406 768.226562 442.113281 768.648438 441.953125 C 769.074219 441.792969 769.457031 441.5625 769.796875 441.261719 C 770.136719 440.960938 770.414062 440.613281 770.625 440.210938 C 770.839844 439.808594 770.972656 439.386719 771.027344 438.9375 L 774.753906 409.199219 C 774.789062 408.9375 774.792969 408.675781 774.769531 408.414062 C 774.746094 408.152344 774.695312 407.894531 774.617188 407.644531 C 774.539062 407.390625 774.4375 407.148438 774.308594 406.921875 C 774.179688 406.691406 774.027344 406.476562 773.851562 406.28125 C 773.675781 406.082031 773.484375 405.90625 773.269531 405.75 C 773.058594 405.59375 772.832031 405.460938 772.589844 405.351562 C 772.347656 405.242188 772.101562 405.160156 771.839844 405.105469 C 771.582031 405.050781 771.320312 405.023438 771.058594 405.023438 Z M 764.042969 434.757812 L 703.558594 434.757812 L 700.761719 412.457031 L 766.835938 412.457031 Z M 764.042969 434.757812 " fill-opacity="1" fill-rule="nonzero"/></g><g clip-path="url(#2f7cd75bf2)"><path fill="#000000" d="M 830.671875 382.71875 L 836.257812 382.71875 C 837.117188 382.71875 837.964844 382.636719 838.800781 382.46875 C 839.640625 382.300781 840.457031 382.054688 841.246094 381.726562 C 842.039062 381.398438 842.789062 381 843.5 380.523438 C 844.210938 380.050781 844.871094 379.511719 845.476562 378.90625 C 846.082031 378.300781 846.621094 377.644531 847.097656 376.933594 C 847.574219 376.226562 847.976562 375.476562 848.304688 374.6875 C 848.632812 373.898438 848.878906 373.085938 849.046875 372.25 C 849.214844 371.410156 849.300781 370.566406 849.300781 369.710938 L 849.300781 365.996094 C 849.300781 365.140625 849.214844 364.292969 849.046875 363.457031 C 848.878906 362.621094 848.632812 361.808594 848.304688 361.019531 C 847.976562 360.230469 847.574219 359.480469 847.097656 358.769531 C 846.621094 358.058594 846.082031 357.402344 845.476562 356.800781 C 844.871094 356.195312 844.210938 355.65625 843.5 355.183594 C 842.789062 354.707031 842.039062 354.304688 841.246094 353.980469 C 840.457031 353.652344 839.640625 353.40625 838.800781 353.238281 C 837.964844 353.070312 837.117188 352.984375 836.257812 352.984375 L 830.671875 352.984375 C 830.175781 352.984375 829.703125 353.078125 829.246094 353.269531 C 828.789062 353.457031 828.386719 353.726562 828.035156 354.074219 C 827.6875 354.421875 827.417969 354.824219 827.230469 355.28125 C 827.039062 355.734375 826.945312 356.210938 826.945312 356.703125 L 826.945312 364.136719 L 823.246094 364.136719 L 819.492188 334.167969 L 819.492188 328.824219 C 819.492188 327.972656 819.410156 327.125 819.242188 326.289062 C 819.074219 325.449219 818.824219 324.636719 818.496094 323.847656 C 818.167969 323.058594 817.765625 322.308594 817.292969 321.601562 C 816.816406 320.890625 816.273438 320.234375 815.667969 319.628906 C 815.066406 319.027344 814.40625 318.488281 813.695312 318.011719 C 812.984375 317.539062 812.230469 317.136719 811.441406 316.808594 C 810.652344 316.480469 809.835938 316.234375 808.996094 316.066406 C 808.15625 315.902344 807.308594 315.816406 806.453125 315.816406 L 661.148438 315.816406 C 660.289062 315.816406 659.441406 315.902344 658.605469 316.066406 C 657.765625 316.234375 656.949219 316.480469 656.160156 316.808594 C 655.367188 317.136719 654.617188 317.539062 653.90625 318.011719 C 653.195312 318.488281 652.535156 319.027344 651.929688 319.628906 C 651.324219 320.234375 650.785156 320.890625 650.308594 321.601562 C 649.832031 322.308594 649.429688 323.058594 649.101562 323.847656 C 648.773438 324.636719 648.527344 325.449219 648.359375 326.289062 C 648.191406 327.125 648.105469 327.972656 648.105469 328.824219 L 648.105469 334.167969 L 644.351562 364.136719 L 640.65625 364.136719 L 640.65625 356.703125 C 640.65625 356.210938 640.558594 355.734375 640.371094 355.28125 C 640.183594 354.824219 639.914062 354.421875 639.5625 354.074219 C 639.214844 353.726562 638.8125 353.457031 638.355469 353.269531 C 637.898438 353.078125 637.421875 352.984375 636.929688 352.984375 L 631.339844 352.984375 C 630.484375 352.984375 629.636719 353.070312 628.796875 353.238281 C 627.957031 353.40625 627.144531 353.652344 626.351562 353.980469 C 625.5625 354.304688 624.808594 354.707031 624.097656 355.183594 C 623.386719 355.65625 622.730469 356.195312 622.125 356.800781 C 621.519531 357.402344 620.976562 358.058594 620.503906 358.769531 C 620.027344 359.480469 619.625 360.230469 619.296875 361.019531 C 618.96875 361.808594 618.71875 362.621094 618.554688 363.457031 C 618.386719 364.292969 618.300781 365.140625 618.300781 365.996094 L 618.300781 369.710938 C 618.300781 370.566406 618.386719 371.410156 618.554688 372.25 C 618.71875 373.085938 618.96875 373.898438 619.296875 374.6875 C 619.625 375.476562 620.027344 376.226562 620.503906 376.933594 C 620.976562 377.644531 621.519531 378.300781 622.125 378.90625 C 622.730469 379.511719 623.386719 380.050781 624.097656 380.523438 C 624.808594 381 625.5625 381.398438 626.351562 381.726562 C 627.144531 382.054688 627.957031 382.300781 628.796875 382.46875 C 629.636719 382.636719 630.484375 382.71875 631.339844 382.71875 L 636.929688 382.71875 C 637.421875 382.71875 637.898438 382.625 638.355469 382.4375 C 638.8125 382.25 639.214844 381.980469 639.5625 381.632812 C 639.914062 381.285156 640.183594 380.882812 640.371094 380.425781 C 640.558594 379.96875 640.65625 379.496094 640.65625 379.003906 L 640.65625 371.570312 L 643.421875 371.570312 L 641.09375 390.15625 L 638.792969 390.15625 C 637.9375 390.15625 637.089844 390.238281 636.25 390.40625 C 635.410156 390.574219 634.59375 390.820312 633.804688 391.148438 C 633.011719 391.476562 632.261719 391.875 631.550781 392.351562 C 630.839844 392.824219 630.179688 393.367188 629.574219 393.96875 C 628.96875 394.574219 628.429688 395.230469 627.953125 395.941406 C 627.476562 396.648438 627.074219 397.398438 626.75 398.1875 C 626.421875 398.976562 626.171875 399.789062 626.003906 400.625 C 625.835938 401.464844 625.753906 402.308594 625.75 403.164062 L 625.75 449.625 L 622.027344 449.625 C 621.53125 449.625 621.054688 449.71875 620.601562 449.910156 C 620.144531 450.097656 619.742188 450.367188 619.390625 450.714844 C 619.042969 451.0625 618.773438 451.464844 618.582031 451.921875 C 618.394531 452.375 618.300781 452.851562 618.300781 453.34375 L 618.300781 468.210938 C 618.300781 468.703125 618.394531 469.175781 618.582031 469.632812 C 618.773438 470.089844 619.042969 470.492188 619.390625 470.839844 C 619.742188 471.1875 620.144531 471.457031 620.601562 471.644531 C 621.054688 471.832031 621.53125 471.925781 622.027344 471.925781 L 625.75 471.925781 L 625.75 481.21875 C 625.753906 482.074219 625.835938 482.917969 626.003906 483.757812 C 626.171875 484.59375 626.421875 485.40625 626.75 486.195312 C 627.074219 486.984375 627.476562 487.734375 627.953125 488.445312 C 628.429688 489.152344 628.96875 489.8125 629.574219 490.414062 C 630.179688 491.019531 630.839844 491.558594 631.550781 492.03125 C 632.261719 492.507812 633.011719 492.90625 633.804688 493.234375 C 634.59375 493.5625 635.410156 493.808594 636.25 493.976562 C 637.089844 494.144531 637.9375 494.226562 638.792969 494.230469 L 649.96875 494.230469 C 650.824219 494.226562 651.671875 494.144531 652.511719 493.976562 C 653.351562 493.808594 654.167969 493.5625 654.957031 493.234375 C 655.746094 492.90625 656.5 492.507812 657.210938 492.03125 C 657.921875 491.558594 658.582031 491.019531 659.1875 490.414062 C 659.792969 489.8125 660.332031 489.152344 660.808594 488.445312 C 661.285156 487.734375 661.683594 486.984375 662.011719 486.195312 C 662.339844 485.40625 662.589844 484.59375 662.757812 483.757812 C 662.925781 482.917969 663.007812 482.074219 663.007812 481.21875 L 663.007812 471.925781 L 804.589844 471.925781 L 804.589844 481.21875 C 804.589844 482.074219 804.675781 482.917969 804.84375 483.757812 C 805.011719 484.59375 805.257812 485.40625 805.585938 486.195312 C 805.914062 486.984375 806.316406 487.734375 806.792969 488.445312 C 807.269531 489.152344 807.808594 489.8125 808.414062 490.414062 C 809.019531 491.019531 809.675781 491.558594 810.390625 492.03125 C 811.101562 492.507812 811.851562 492.90625 812.640625 493.234375 C 813.433594 493.5625 814.25 493.808594 815.085938 493.976562 C 815.925781 494.144531 816.773438 494.226562 817.628906 494.230469 L 828.808594 494.230469 C 829.664062 494.226562 830.511719 494.144531 831.351562 493.976562 C 832.191406 493.808594 833.003906 493.5625 833.796875 493.234375 C 834.585938 492.90625 835.335938 492.507812 836.050781 492.03125 C 836.761719 491.558594 837.417969 491.019531 838.023438 490.414062 C 838.628906 489.8125 839.171875 489.152344 839.644531 488.445312 C 840.121094 487.734375 840.523438 486.984375 840.851562 486.195312 C 841.179688 485.40625 841.425781 484.59375 841.59375 483.757812 C 841.761719 482.917969 841.847656 482.074219 841.847656 481.21875 L 841.847656 471.925781 L 845.574219 471.925781 C 846.066406 471.925781 846.542969 471.832031 847 471.644531 C 847.457031 471.457031 847.859375 471.1875 848.207031 470.839844 C 848.558594 470.492188 848.828125 470.089844 849.015625 469.632812 C 849.207031 469.175781 849.300781 468.703125 849.300781 468.210938 L 849.300781 453.34375 C 849.300781 452.851562 849.207031 452.375 849.015625 451.921875 C 848.828125 451.464844 848.558594 451.0625 848.207031 450.714844 C 847.859375 450.367188 847.457031 450.097656 847 449.910156 C 846.542969 449.71875 846.066406 449.625 845.574219 449.625 L 841.847656 449.625 L 841.847656 403.164062 C 841.847656 402.308594 841.761719 401.464844 841.59375 400.625 C 841.425781 399.789062 841.179688 398.976562 840.851562 398.1875 C 840.523438 397.398438 840.121094 396.648438 839.644531 395.941406 C 839.171875 395.230469 838.628906 394.574219 838.023438 393.96875 C 837.417969 393.367188 836.761719 392.824219 836.050781 392.351562 C 835.335938 391.875 834.585938 391.476562 833.796875 391.148438 C 833.003906 390.820312 832.191406 390.574219 831.351562 390.40625 C 830.511719 390.238281 829.664062 390.15625 828.808594 390.15625 L 826.507812 390.15625 L 824.179688 371.570312 L 826.945312 371.570312 L 826.945312 379.003906 C 826.945312 379.496094 827.039062 379.96875 827.230469 380.425781 C 827.417969 380.882812 827.6875 381.285156 828.035156 381.632812 C 828.386719 381.980469 828.789062 382.25 829.246094 382.4375 C 829.703125 382.625 830.175781 382.71875 830.671875 382.71875 Z M 834.398438 360.417969 L 836.257812 360.417969 C 836.625 360.417969 836.988281 360.457031 837.347656 360.527344 C 837.710938 360.597656 838.058594 360.703125 838.398438 360.84375 C 838.738281 360.984375 839.058594 361.15625 839.363281 361.359375 C 839.667969 361.5625 839.949219 361.792969 840.210938 362.054688 C 840.46875 362.3125 840.699219 362.59375 840.90625 362.898438 C 841.109375 363.203125 841.28125 363.523438 841.421875 363.863281 C 841.5625 364.199219 841.667969 364.546875 841.738281 364.90625 C 841.8125 365.265625 841.847656 365.628906 841.847656 365.996094 L 841.847656 369.710938 C 841.847656 370.078125 841.8125 370.441406 841.738281 370.796875 C 841.667969 371.15625 841.5625 371.507812 841.421875 371.84375 C 841.28125 372.183594 841.109375 372.503906 840.90625 372.808594 C 840.699219 373.113281 840.46875 373.394531 840.210938 373.652344 C 839.949219 373.910156 839.667969 374.140625 839.363281 374.34375 C 839.058594 374.550781 838.738281 374.722656 838.398438 374.859375 C 838.058594 375 837.710938 375.105469 837.347656 375.179688 C 836.988281 375.25 836.625 375.285156 836.257812 375.285156 L 834.398438 375.285156 Z M 633.203125 375.285156 L 631.339844 375.285156 C 630.972656 375.285156 630.609375 375.25 630.25 375.179688 C 629.890625 375.105469 629.542969 375 629.203125 374.859375 C 628.863281 374.722656 628.542969 374.550781 628.238281 374.34375 C 627.929688 374.140625 627.648438 373.910156 627.390625 373.652344 C 627.128906 373.394531 626.898438 373.113281 626.695312 372.808594 C 626.492188 372.503906 626.320312 372.183594 626.179688 371.84375 C 626.039062 371.507812 625.929688 371.15625 625.859375 370.796875 C 625.789062 370.441406 625.75 370.078125 625.75 369.710938 L 625.75 365.996094 C 625.75 365.628906 625.789062 365.265625 625.859375 364.90625 C 625.929688 364.546875 626.039062 364.199219 626.179688 363.863281 C 626.320312 363.523438 626.492188 363.203125 626.695312 362.898438 C 626.898438 362.59375 627.128906 362.3125 627.390625 362.054688 C 627.648438 361.792969 627.929688 361.5625 628.238281 361.359375 C 628.542969 361.15625 628.863281 360.984375 629.203125 360.84375 C 629.542969 360.703125 629.890625 360.597656 630.25 360.527344 C 630.609375 360.457031 630.972656 360.417969 631.339844 360.417969 L 633.203125 360.417969 Z M 655.558594 328.824219 C 655.558594 328.457031 655.59375 328.097656 655.667969 327.738281 C 655.738281 327.378906 655.84375 327.03125 655.984375 326.691406 C 656.125 326.355469 656.296875 326.03125 656.5 325.726562 C 656.707031 325.425781 656.9375 325.140625 657.195312 324.882812 C 657.457031 324.625 657.738281 324.394531 658.042969 324.191406 C 658.347656 323.988281 658.667969 323.816406 659.007812 323.675781 C 659.347656 323.535156 659.695312 323.429688 660.058594 323.355469 C 660.417969 323.285156 660.78125 323.25 661.148438 323.25 L 806.453125 323.25 C 806.820312 323.25 807.183594 323.285156 807.542969 323.355469 C 807.902344 323.429688 808.253906 323.535156 808.589844 323.675781 C 808.929688 323.816406 809.253906 323.988281 809.558594 324.191406 C 809.863281 324.394531 810.144531 324.625 810.402344 324.882812 C 810.664062 325.140625 810.894531 325.425781 811.097656 325.726562 C 811.300781 326.03125 811.476562 326.355469 811.613281 326.691406 C 811.753906 327.03125 811.863281 327.378906 811.933594 327.738281 C 812.003906 328.097656 812.042969 328.457031 812.042969 328.824219 L 812.042969 330.683594 L 655.558594 330.683594 Z M 655.121094 338.117188 L 812.480469 338.117188 L 819 390.15625 L 648.601562 390.15625 Z M 655.558594 481.21875 C 655.558594 481.585938 655.523438 481.949219 655.449219 482.308594 C 655.378906 482.667969 655.273438 483.015625 655.132812 483.351562 C 654.992188 483.691406 654.820312 484.011719 654.613281 484.316406 C 654.410156 484.621094 654.179688 484.902344 653.917969 485.160156 C 653.660156 485.417969 653.378906 485.652344 653.074219 485.855469 C 652.769531 486.058594 652.445312 486.230469 652.105469 486.371094 C 651.769531 486.511719 651.417969 486.617188 651.058594 486.6875 C 650.699219 486.757812 650.335938 486.796875 649.96875 486.796875 L 638.792969 486.796875 C 638.425781 486.796875 638.0625 486.757812 637.703125 486.6875 C 637.34375 486.617188 636.992188 486.511719 636.652344 486.371094 C 636.316406 486.230469 635.992188 486.058594 635.6875 485.855469 C 635.382812 485.652344 635.101562 485.417969 634.839844 485.160156 C 634.582031 484.902344 634.351562 484.621094 634.148438 484.316406 C 633.941406 484.011719 633.769531 483.691406 633.628906 483.351562 C 633.488281 483.015625 633.382812 482.667969 633.3125 482.308594 C 633.238281 481.949219 633.203125 481.585938 633.203125 481.21875 L 633.203125 471.925781 L 655.558594 471.925781 Z M 834.398438 481.21875 C 834.394531 481.585938 834.359375 481.949219 834.289062 482.308594 C 834.214844 482.667969 834.109375 483.015625 833.96875 483.351562 C 833.828125 483.691406 833.65625 484.011719 833.453125 484.316406 C 833.25 484.621094 833.019531 484.902344 832.757812 485.160156 C 832.5 485.417969 832.21875 485.652344 831.910156 485.855469 C 831.605469 486.058594 831.285156 486.230469 830.945312 486.371094 C 830.605469 486.511719 830.257812 486.617188 829.898438 486.6875 C 829.539062 486.757812 829.175781 486.796875 828.808594 486.796875 L 817.628906 486.796875 C 817.265625 486.796875 816.898438 486.757812 816.539062 486.6875 C 816.179688 486.617188 815.832031 486.511719 815.492188 486.371094 C 815.152344 486.230469 814.832031 486.058594 814.527344 485.855469 C 814.222656 485.652344 813.941406 485.417969 813.679688 485.160156 C 813.421875 484.902344 813.1875 484.621094 812.984375 484.316406 C 812.78125 484.011719 812.609375 483.691406 812.46875 483.351562 C 812.328125 483.015625 812.222656 482.667969 812.148438 482.308594 C 812.078125 481.949219 812.042969 481.585938 812.042969 481.21875 L 812.042969 471.925781 L 834.398438 471.925781 Z M 841.847656 457.058594 L 841.847656 464.492188 L 625.75 464.492188 L 625.75 457.058594 Z M 828.808594 397.589844 C 829.175781 397.589844 829.539062 397.625 829.898438 397.695312 C 830.257812 397.769531 830.605469 397.875 830.945312 398.015625 C 831.285156 398.152344 831.605469 398.324219 831.910156 398.53125 C 832.21875 398.734375 832.5 398.964844 832.757812 399.222656 C 833.019531 399.480469 833.25 399.761719 833.453125 400.066406 C 833.65625 400.371094 833.828125 400.691406 833.96875 401.03125 C 834.109375 401.367188 834.214844 401.71875 834.289062 402.078125 C 834.359375 402.433594 834.394531 402.796875 834.398438 403.164062 L 834.398438 449.625 L 633.203125 449.625 L 633.203125 403.164062 C 633.203125 402.796875 633.238281 402.433594 633.3125 402.078125 C 633.382812 401.71875 633.488281 401.367188 633.628906 401.03125 C 633.769531 400.691406 633.941406 400.371094 634.148438 400.066406 C 634.351562 399.761719 634.582031 399.480469 634.839844 399.222656 C 635.101562 398.964844 635.382812 398.734375 635.6875 398.53125 C 635.992188 398.324219 636.316406 398.152344 636.652344 398.015625 C 636.992188 397.875 637.34375 397.769531 637.703125 397.695312 C 638.0625 397.625 638.425781 397.589844 638.792969 397.589844 Z M 828.808594 397.589844 " fill-opacity="1" fill-rule="nonzero"/></g><g clip-path="url(#5a1bce94e1)"><path fill="#ffffff" d="M 732.023438 309.699219 C 726.0625 309.699219 720.234375 310.324219 714.609375 311.46875 L 714.609375 324.9375 C 707.046875 326.761719 699.980469 329.691406 693.519531 333.644531 L 683.996094 324.121094 C 679.117188 327.355469 674.652344 331.152344 670.527344 335.277344 C 666.402344 339.402344 662.605469 343.863281 659.371094 348.746094 L 668.894531 358.269531 C 664.945312 364.730469 662.015625 371.792969 660.1875 379.359375 L 646.71875 379.359375 C 645.574219 384.984375 644.949219 390.808594 644.949219 396.773438 C 644.949219 402.734375 645.574219 408.558594 646.71875 414.1875 L 660.1875 414.1875 C 662.015625 421.75 664.945312 428.816406 668.894531 435.273438 L 659.371094 444.800781 C 662.605469 449.679688 666.402344 454.140625 670.527344 458.269531 C 674.652344 462.394531 679.117188 466.1875 683.996094 469.425781 L 693.519531 459.902344 C 699.980469 463.851562 707.046875 466.78125 714.609375 468.609375 L 714.609375 482.078125 C 720.234375 483.21875 726.0625 483.847656 732.023438 483.847656 C 737.988281 483.847656 743.8125 483.21875 749.4375 482.078125 L 749.4375 468.609375 C 757.003906 466.78125 764.066406 463.851562 770.527344 459.902344 L 780.050781 469.425781 C 784.933594 466.1875 789.394531 462.394531 793.519531 458.269531 C 797.644531 454.140625 801.441406 449.679688 804.675781 444.800781 L 795.152344 435.273438 C 799.105469 428.816406 802.03125 421.75 803.859375 414.1875 L 817.328125 414.1875 C 818.472656 408.558594 819.097656 402.734375 819.097656 396.773438 C 819.097656 390.808594 818.472656 384.984375 817.328125 379.359375 L 803.859375 379.359375 C 802.03125 371.792969 799.105469 364.730469 795.152344 358.269531 L 804.675781 348.746094 C 801.441406 343.863281 797.644531 339.402344 793.519531 335.277344 C 789.394531 331.152344 784.933594 327.355469 780.050781 324.121094 L 770.527344 333.644531 C 764.066406 329.691406 757.003906 326.761719 749.4375 324.9375 L 749.4375 311.46875 C 743.8125 310.324219 737.988281 309.699219 732.023438 309.699219 Z M 732.023438 353.234375 C 756.054688 353.234375 775.558594 372.742188 775.558594 396.773438 C 775.558594 420.804688 756.054688 440.308594 732.023438 440.308594 C 707.992188 440.308594 688.488281 420.804688 688.488281 396.773438 C 688.488281 372.742188 707.992188 353.234375 732.023438 353.234375 Z M 732.023438 353.234375 " fill-opacity="1" fill-rule="nonzero"/></g><g clip-path="url(#7e07f6cade)"><path stroke-linecap="round" transform="matrix(2.176829, 0, 0, 2.176829, 642.77383, 307.522562)" fill="none" stroke-linejoin="round" d="M 40.999818 0.999921 C 38.261461 0.999921 35.584115 1.287035 33.000081 1.812815 L 33.000081 8.000139 C 29.525992 8.838156 26.2798 10.184006 23.31175 12.000008 L 18.936838 7.625096 C 16.695547 9.110915 14.644471 10.855137 12.749513 12.750095 C 10.854555 14.645053 9.110332 16.694335 7.624513 18.93742 L 11.999425 23.312332 C 10.185219 26.280382 8.839368 29.52478 7.999557 33.000664 L 1.812232 33.000664 C 1.286453 35.584697 0.999338 38.260249 0.999338 41.000401 C 0.999338 43.738759 1.286453 46.41431 1.812232 49.000138 L 7.999557 49.000138 C 8.839368 52.474227 10.185219 55.72042 11.999425 58.686675 L 7.624513 63.063382 C 9.110332 65.304672 10.854555 67.353954 12.749513 69.250706 C 14.644471 71.145664 16.695547 72.888092 18.936838 74.375706 L 23.31175 70.000794 C 26.2798 71.815001 29.525992 73.160851 33.000081 74.000662 L 33.000081 80.187987 C 35.584115 80.711972 38.261461 81.000881 40.999818 81.000881 C 43.739971 81.000881 46.415522 80.711972 48.999556 80.187987 L 48.999556 74.000662 C 52.47544 73.160851 55.719837 71.815001 58.687887 70.000794 L 63.062799 74.375706 C 65.305884 72.888092 67.355166 71.145664 69.250124 69.250706 C 71.145082 67.353954 72.889304 65.304672 74.375124 63.063382 L 70.000211 58.686675 C 71.816213 55.72042 73.160269 52.474227 74.00008 49.000138 L 80.187405 49.000138 C 80.713184 46.41431 81.000299 43.738759 81.000299 41.000401 C 81.000299 38.260249 80.713184 35.584697 80.187405 33.000664 L 74.00008 33.000664 C 73.160269 29.52478 71.816213 26.280382 70.000211 23.312332 L 74.375124 18.93742 C 72.889304 16.694335 71.145082 14.645053 69.250124 12.750095 C 67.355166 10.855137 65.305884 9.110915 63.062799 7.625096 L 58.687887 12.000008 C 55.719837 10.184006 52.47544 8.838156 48.999556 8.000139 L 48.999556 1.812815 C 46.415522 1.287035 43.739971 0.999921 40.999818 0.999921 Z M 40.999818 20.999263 C 52.039384 20.999263 60.999161 29.960835 60.999161 41.000401 C 60.999161 52.039966 52.039384 60.999744 40.999818 60.999744 C 29.960253 60.999744 21.000476 52.039966 21.000476 41.000401 C 21.000476 29.960835 29.960253 20.999263 40.999818 20.999263 Z M 40.999818 20.999263 " stroke="#2c2c2c" stroke-width="2" stroke-opacity="1" stroke-miterlimit="4"/></g><g clip-path="url(#aa2189beb4)"><path fill="#000000" d="M 732.277344 295.898438 C 731.84375 322.050781 731.398438 348.210938 730.953125 374.363281 C 730.335938 410.847656 729.710938 447.324219 729.097656 483.808594 C 728.914062 494.964844 728.71875 506.117188 728.535156 517.273438 C 728.503906 519.199219 730.132812 519.976562 731.847656 519.203125 C 733.777344 518.347656 735.1875 515.90625 735.21875 513.917969 C 735.652344 487.765625 736.105469 461.605469 736.542969 435.449219 C 737.160156 398.96875 737.78125 362.488281 738.398438 326.007812 C 738.589844 314.851562 738.777344 303.699219 738.960938 292.542969 C 738.992188 290.617188 737.363281 289.839844 735.644531 290.609375 C 733.722656 291.46875 732.3125 293.914062 732.277344 295.898438 Z M 732.277344 295.898438 " fill-opacity="1" fill-rule="nonzero"/></g></svg>