<svg xmlns="http://www.w3.org/2000/svg" xmlns:xlink="http://www.w3.org/1999/xlink" width="1920" zoomAndPan="magnify" viewBox="200 150 1040 510" height="1080" preserveAspectRatio="xMidYMid meet" version="1.0"><defs><clipPath id="806972b3c0"><path d="M 604.800781 315.773438 L 835.050781 315.773438 L 835.050781 494.273438 L 604.800781 494.273438 Z M 604.800781 315.773438 " clip-rule="nonzero"/></clipPath></defs><path fill="#000000" d="M 645.652344 405.023438 C 645.042969 405.023438 644.4375 405.050781 643.832031 405.113281 C 643.226562 405.171875 642.625 405.261719 642.027344 405.378906 C 641.433594 405.5 640.84375 405.644531 640.261719 405.824219 C 639.679688 406 639.105469 406.203125 638.542969 406.4375 C 637.984375 406.671875 637.433594 406.929688 636.898438 407.21875 C 636.359375 407.503906 635.839844 407.816406 635.335938 408.15625 C 634.828125 408.492188 634.339844 408.855469 633.871094 409.242188 C 633.402344 409.628906 632.949219 410.035156 632.519531 410.464844 C 632.089844 410.894531 631.683594 411.347656 631.296875 411.816406 C 630.910156 412.289062 630.550781 412.777344 630.210938 413.28125 C 629.875 413.789062 629.5625 414.308594 629.273438 414.847656 C 628.988281 415.382812 628.726562 415.933594 628.496094 416.496094 C 628.261719 417.058594 628.058594 417.628906 627.882812 418.210938 C 627.707031 418.792969 627.558594 419.382812 627.4375 419.980469 C 627.320312 420.578125 627.230469 421.179688 627.171875 421.785156 C 627.113281 422.390625 627.082031 423 627.082031 423.605469 C 627.082031 424.214844 627.113281 424.824219 627.171875 425.429688 C 627.230469 426.035156 627.320312 426.636719 627.4375 427.234375 C 627.558594 427.828125 627.707031 428.417969 627.882812 429.003906 C 628.058594 429.585938 628.261719 430.15625 628.496094 430.71875 C 628.726562 431.28125 628.988281 431.832031 629.273438 432.367188 C 629.5625 432.90625 629.875 433.425781 630.210938 433.933594 C 630.550781 434.4375 630.910156 434.925781 631.296875 435.398438 C 631.683594 435.867188 632.089844 436.316406 632.519531 436.75 C 632.949219 437.179688 633.402344 437.585938 633.871094 437.972656 C 634.339844 438.359375 634.828125 438.722656 635.335938 439.058594 C 635.839844 439.398438 636.359375 439.710938 636.898438 439.996094 C 637.433594 440.285156 637.984375 440.542969 638.542969 440.777344 C 639.105469 441.011719 639.679688 441.214844 640.261719 441.390625 C 640.84375 441.566406 641.433594 441.714844 642.027344 441.835938 C 642.625 441.953125 643.226562 442.042969 643.832031 442.101562 C 644.4375 442.160156 645.042969 442.191406 645.652344 442.191406 C 646.257812 442.191406 646.867188 442.160156 647.472656 442.101562 C 648.074219 442.042969 648.675781 441.953125 649.273438 441.835938 C 649.871094 441.714844 650.457031 441.566406 651.039062 441.390625 C 651.621094 441.214844 652.195312 441.011719 652.757812 440.777344 C 653.320312 440.542969 653.867188 440.285156 654.402344 439.996094 C 654.941406 439.710938 655.460938 439.398438 655.96875 439.058594 C 656.472656 438.722656 656.960938 438.359375 657.429688 437.972656 C 657.902344 437.585938 658.351562 437.179688 658.78125 436.75 C 659.210938 436.316406 659.617188 435.867188 660.003906 435.398438 C 660.390625 434.925781 660.753906 434.4375 661.089844 433.933594 C 661.429688 433.425781 661.738281 432.90625 662.027344 432.367188 C 662.3125 431.832031 662.574219 431.28125 662.804688 430.71875 C 663.039062 430.15625 663.242188 429.585938 663.417969 429.003906 C 663.597656 428.417969 663.742188 427.828125 663.863281 427.234375 C 663.980469 426.636719 664.070312 426.035156 664.128906 425.429688 C 664.191406 424.824219 664.21875 424.214844 664.21875 423.605469 C 664.21875 423 664.1875 422.390625 664.128906 421.785156 C 664.066406 421.179688 663.976562 420.578125 663.859375 419.984375 C 663.738281 419.386719 663.59375 418.796875 663.414062 418.214844 C 663.238281 417.632812 663.035156 417.058594 662.800781 416.5 C 662.566406 415.9375 662.308594 415.386719 662.019531 414.851562 C 661.734375 414.3125 661.421875 413.792969 661.082031 413.285156 C 660.746094 412.78125 660.382812 412.292969 659.996094 411.824219 C 659.613281 411.351562 659.203125 410.902344 658.773438 410.472656 C 658.34375 410.042969 657.894531 409.632812 657.425781 409.246094 C 656.953125 408.859375 656.46875 408.5 655.960938 408.160156 C 655.457031 407.824219 654.9375 407.511719 654.398438 407.222656 C 653.863281 406.9375 653.316406 406.675781 652.753906 406.441406 C 652.191406 406.210938 651.621094 406.003906 651.039062 405.828125 C 650.457031 405.648438 649.867188 405.503906 649.273438 405.382812 C 648.675781 405.265625 648.074219 405.175781 647.46875 405.113281 C 646.863281 405.054688 646.257812 405.023438 645.652344 405.023438 Z M 645.652344 434.757812 C 644.917969 434.757812 644.195312 434.6875 643.476562 434.542969 C 642.757812 434.402344 642.0625 434.1875 641.386719 433.910156 C 640.710938 433.628906 640.070312 433.285156 639.460938 432.878906 C 638.851562 432.472656 638.289062 432.007812 637.773438 431.492188 C 637.253906 430.972656 636.792969 430.410156 636.386719 429.800781 C 635.980469 429.195312 635.636719 428.550781 635.359375 427.875 C 635.078125 427.199219 634.867188 426.5 634.722656 425.78125 C 634.582031 425.066406 634.507812 424.339844 634.507812 423.605469 C 634.507812 422.875 634.582031 422.148438 634.722656 421.433594 C 634.867188 420.714844 635.078125 420.015625 635.359375 419.339844 C 635.636719 418.664062 635.980469 418.019531 636.386719 417.410156 C 636.792969 416.804688 637.253906 416.238281 637.773438 415.722656 C 638.289062 415.203125 638.851562 414.742188 639.460938 414.335938 C 640.070312 413.929688 640.710938 413.585938 641.386719 413.304688 C 642.0625 413.023438 642.757812 412.8125 643.476562 412.671875 C 644.195312 412.527344 644.917969 412.457031 645.652344 412.457031 C 646.382812 412.457031 647.105469 412.527344 647.824219 412.671875 C 648.542969 412.8125 649.238281 413.023438 649.914062 413.304688 C 650.589844 413.585938 651.230469 413.929688 651.839844 414.335938 C 652.449219 414.742188 653.011719 415.203125 653.527344 415.722656 C 654.046875 416.238281 654.507812 416.804688 654.914062 417.410156 C 655.320312 418.019531 655.664062 418.664062 655.945312 419.339844 C 656.222656 420.015625 656.433594 420.714844 656.578125 421.433594 C 656.71875 422.148438 656.792969 422.875 656.792969 423.605469 C 656.792969 424.339844 656.71875 425.0625 656.574219 425.78125 C 656.433594 426.5 656.21875 427.195312 655.941406 427.871094 C 655.660156 428.546875 655.316406 429.191406 654.910156 429.800781 C 654.503906 430.40625 654.042969 430.96875 653.523438 431.488281 C 653.007812 432.003906 652.445312 432.46875 651.835938 432.875 C 651.230469 433.28125 650.585938 433.625 649.914062 433.90625 C 649.238281 434.1875 648.539062 434.398438 647.824219 434.542969 C 647.105469 434.683594 646.382812 434.757812 645.652344 434.757812 Z M 645.652344 434.757812 " fill-opacity="1" fill-rule="nonzero"/><path fill="#000000" d="M 794.074219 405.023438 C 793.464844 405.023438 792.859375 405.050781 792.253906 405.113281 C 791.648438 405.171875 791.046875 405.261719 790.449219 405.378906 C 789.855469 405.5 789.265625 405.644531 788.683594 405.824219 C 788.101562 406 787.527344 406.203125 786.96875 406.4375 C 786.40625 406.671875 785.855469 406.929688 785.320312 407.21875 C 784.785156 407.503906 784.261719 407.816406 783.757812 408.15625 C 783.25 408.492188 782.761719 408.855469 782.292969 409.242188 C 781.824219 409.628906 781.371094 410.035156 780.941406 410.464844 C 780.511719 410.894531 780.105469 411.347656 779.71875 411.816406 C 779.332031 412.289062 778.972656 412.777344 778.632812 413.28125 C 778.296875 413.789062 777.984375 414.308594 777.695312 414.847656 C 777.410156 415.382812 777.152344 415.933594 776.917969 416.496094 C 776.683594 417.058594 776.480469 417.628906 776.304688 418.210938 C 776.128906 418.792969 775.980469 419.382812 775.859375 419.980469 C 775.742188 420.578125 775.652344 421.179688 775.59375 421.785156 C 775.535156 422.390625 775.503906 423 775.503906 423.605469 C 775.503906 424.214844 775.535156 424.824219 775.59375 425.429688 C 775.652344 426.035156 775.742188 426.636719 775.859375 427.234375 C 775.980469 427.828125 776.128906 428.417969 776.304688 429.003906 C 776.480469 429.585938 776.683594 430.15625 776.917969 430.71875 C 777.152344 431.28125 777.410156 431.832031 777.695312 432.367188 C 777.984375 432.90625 778.296875 433.425781 778.632812 433.933594 C 778.972656 434.4375 779.332031 434.925781 779.71875 435.398438 C 780.105469 435.867188 780.511719 436.316406 780.941406 436.75 C 781.371094 437.179688 781.824219 437.585938 782.292969 437.972656 C 782.761719 438.359375 783.25 438.722656 783.757812 439.058594 C 784.261719 439.398438 784.785156 439.710938 785.320312 439.996094 C 785.855469 440.285156 786.40625 440.542969 786.96875 440.777344 C 787.527344 441.011719 788.101562 441.214844 788.683594 441.390625 C 789.265625 441.566406 789.855469 441.714844 790.449219 441.835938 C 791.046875 441.953125 791.648438 442.042969 792.253906 442.101562 C 792.859375 442.160156 793.464844 442.191406 794.074219 442.191406 C 794.679688 442.191406 795.289062 442.160156 795.894531 442.101562 C 796.5 442.042969 797.097656 441.953125 797.695312 441.835938 C 798.292969 441.714844 798.882812 441.566406 799.464844 441.390625 C 800.046875 441.214844 800.617188 441.011719 801.179688 440.777344 C 801.742188 440.542969 802.289062 440.285156 802.824219 439.996094 C 803.363281 439.710938 803.882812 439.398438 804.390625 439.058594 C 804.894531 438.722656 805.382812 438.359375 805.851562 437.972656 C 806.324219 437.585938 806.773438 437.179688 807.203125 436.75 C 807.632812 436.316406 808.039062 435.867188 808.425781 435.398438 C 808.8125 434.925781 809.175781 434.4375 809.511719 433.933594 C 809.851562 433.425781 810.164062 432.90625 810.449219 432.367188 C 810.734375 431.832031 810.996094 431.28125 811.226562 430.71875 C 811.460938 430.15625 811.664062 429.585938 811.84375 429.003906 C 812.019531 428.417969 812.164062 427.828125 812.285156 427.234375 C 812.402344 426.636719 812.492188 426.035156 812.550781 425.429688 C 812.613281 424.824219 812.640625 424.214844 812.640625 423.605469 C 812.640625 423 812.609375 422.390625 812.550781 421.785156 C 812.488281 421.179688 812.398438 420.578125 812.28125 419.984375 C 812.160156 419.386719 812.015625 418.796875 811.835938 418.214844 C 811.660156 417.632812 811.457031 417.058594 811.222656 416.5 C 810.988281 415.9375 810.730469 415.386719 810.441406 414.851562 C 810.15625 414.3125 809.84375 413.792969 809.503906 413.285156 C 809.167969 412.78125 808.804688 412.292969 808.421875 411.824219 C 808.035156 411.351562 807.625 410.902344 807.195312 410.472656 C 806.765625 410.042969 806.316406 409.632812 805.847656 409.246094 C 805.378906 408.859375 804.890625 408.5 804.382812 408.160156 C 803.878906 407.824219 803.359375 407.511719 802.820312 407.222656 C 802.285156 406.9375 801.738281 406.675781 801.175781 406.441406 C 800.613281 406.210938 800.042969 406.003906 799.460938 405.828125 C 798.878906 405.648438 798.289062 405.503906 797.695312 405.382812 C 797.097656 405.265625 796.496094 405.175781 795.890625 405.113281 C 795.289062 405.054688 794.679688 405.023438 794.074219 405.023438 Z M 794.074219 434.757812 C 793.339844 434.757812 792.617188 434.6875 791.898438 434.542969 C 791.183594 434.402344 790.484375 434.1875 789.808594 433.910156 C 789.132812 433.628906 788.492188 433.285156 787.882812 432.878906 C 787.273438 432.472656 786.710938 432.007812 786.195312 431.492188 C 785.675781 430.972656 785.214844 430.410156 784.808594 429.800781 C 784.402344 429.195312 784.058594 428.550781 783.78125 427.875 C 783.5 427.199219 783.289062 426.5 783.144531 425.78125 C 783.003906 425.066406 782.933594 424.339844 782.933594 423.605469 C 782.933594 422.875 783.003906 422.148438 783.144531 421.433594 C 783.289062 420.714844 783.5 420.015625 783.78125 419.339844 C 784.058594 418.664062 784.402344 418.019531 784.808594 417.410156 C 785.214844 416.804688 785.675781 416.238281 786.195312 415.722656 C 786.710938 415.203125 787.273438 414.742188 787.882812 414.335938 C 788.492188 413.929688 789.132812 413.585938 789.808594 413.304688 C 790.484375 413.023438 791.183594 412.8125 791.898438 412.671875 C 792.617188 412.527344 793.339844 412.457031 794.074219 412.457031 C 794.804688 412.457031 795.527344 412.527344 796.246094 412.671875 C 796.964844 412.8125 797.660156 413.023438 798.335938 413.304688 C 799.011719 413.585938 799.652344 413.929688 800.261719 414.335938 C 800.871094 414.742188 801.433594 415.203125 801.949219 415.722656 C 802.46875 416.238281 802.929688 416.804688 803.335938 417.410156 C 803.742188 418.019531 804.085938 418.664062 804.367188 419.339844 C 804.644531 420.015625 804.855469 420.714844 805 421.433594 C 805.144531 422.148438 805.214844 422.875 805.214844 423.605469 C 805.214844 424.339844 805.140625 425.0625 804.996094 425.78125 C 804.855469 426.5 804.644531 427.195312 804.363281 427.871094 C 804.082031 428.546875 803.738281 429.191406 803.332031 429.800781 C 802.925781 430.40625 802.464844 430.972656 801.945312 431.488281 C 801.429688 432.007812 800.867188 432.46875 800.257812 432.875 C 799.652344 433.28125 799.011719 433.625 798.335938 433.90625 C 797.660156 434.1875 796.960938 434.398438 796.246094 434.542969 C 795.527344 434.683594 794.804688 434.757812 794.074219 434.757812 Z M 794.074219 434.757812 " fill-opacity="1" fill-rule="nonzero"/><path fill="#000000" d="M 757.0625 405.023438 L 682.789062 405.023438 C 682.523438 405.023438 682.265625 405.050781 682.007812 405.105469 C 681.75 405.160156 681.5 405.242188 681.261719 405.351562 C 681.019531 405.460938 680.792969 405.59375 680.582031 405.75 C 680.371094 405.90625 680.179688 406.082031 680.003906 406.28125 C 679.828125 406.476562 679.679688 406.691406 679.550781 406.921875 C 679.421875 407.148438 679.316406 407.390625 679.238281 407.644531 C 679.160156 407.894531 679.113281 408.152344 679.089844 408.414062 C 679.066406 408.675781 679.070312 408.9375 679.101562 409.199219 L 682.816406 438.9375 C 682.871094 439.386719 683.007812 439.808594 683.21875 440.210938 C 683.429688 440.613281 683.703125 440.960938 684.042969 441.261719 C 684.382812 441.5625 684.765625 441.792969 685.1875 441.953125 C 685.609375 442.113281 686.050781 442.191406 686.5 442.191406 L 753.347656 442.191406 C 753.800781 442.191406 754.238281 442.113281 754.664062 441.953125 C 755.085938 441.792969 755.464844 441.5625 755.804688 441.261719 C 756.144531 440.960938 756.421875 440.613281 756.632812 440.210938 C 756.84375 439.808594 756.976562 439.386719 757.035156 438.9375 L 760.746094 409.199219 C 760.78125 408.9375 760.785156 408.675781 760.761719 408.414062 C 760.738281 408.152344 760.6875 407.894531 760.609375 407.644531 C 760.53125 407.390625 760.429688 407.148438 760.300781 406.921875 C 760.171875 406.691406 760.019531 406.476562 759.847656 406.28125 C 759.671875 406.082031 759.480469 405.90625 759.265625 405.75 C 759.054688 405.59375 758.828125 405.460938 758.589844 405.351562 C 758.347656 405.242188 758.101562 405.160156 757.84375 405.105469 C 757.585938 405.050781 757.324219 405.023438 757.0625 405.023438 Z M 750.070312 434.757812 L 689.78125 434.757812 L 686.996094 412.457031 L 752.855469 412.457031 Z M 750.070312 434.757812 " fill-opacity="1" fill-rule="nonzero"/><g clip-path="url(#806972b3c0)"><path fill="#000000" d="M 816.480469 382.71875 L 822.050781 382.71875 C 822.90625 382.71875 823.75 382.636719 824.585938 382.46875 C 825.421875 382.300781 826.234375 382.054688 827.023438 381.726562 C 827.8125 381.398438 828.5625 381 829.269531 380.523438 C 829.980469 380.050781 830.636719 379.511719 831.238281 378.90625 C 831.84375 378.300781 832.378906 377.644531 832.855469 376.933594 C 833.328125 376.226562 833.730469 375.476562 834.058594 374.6875 C 834.382812 373.898438 834.628906 373.085938 834.796875 372.25 C 834.964844 371.410156 835.050781 370.566406 835.050781 369.710938 L 835.050781 365.996094 C 835.050781 365.140625 834.964844 364.292969 834.796875 363.457031 C 834.628906 362.621094 834.382812 361.808594 834.058594 361.019531 C 833.730469 360.230469 833.328125 359.480469 832.855469 358.769531 C 832.378906 358.058594 831.84375 357.402344 831.238281 356.800781 C 830.636719 356.195312 829.980469 355.65625 829.269531 355.183594 C 828.5625 354.707031 827.8125 354.304688 827.023438 353.980469 C 826.234375 353.652344 825.421875 353.40625 824.585938 353.238281 C 823.75 353.070312 822.90625 352.984375 822.050781 352.984375 L 816.480469 352.984375 C 815.988281 352.984375 815.515625 353.078125 815.058594 353.269531 C 814.605469 353.457031 814.203125 353.726562 813.855469 354.074219 C 813.507812 354.421875 813.238281 354.824219 813.050781 355.28125 C 812.863281 355.734375 812.769531 356.210938 812.769531 356.703125 L 812.769531 364.136719 L 809.082031 364.136719 L 805.339844 334.167969 L 805.339844 328.824219 C 805.339844 327.972656 805.253906 327.125 805.089844 326.289062 C 804.921875 325.449219 804.675781 324.636719 804.347656 323.847656 C 804.019531 323.058594 803.621094 322.308594 803.144531 321.601562 C 802.671875 320.890625 802.132812 320.234375 801.527344 319.628906 C 800.925781 319.027344 800.269531 318.488281 799.558594 318.011719 C 798.851562 317.539062 798.101562 317.136719 797.3125 316.808594 C 796.527344 316.480469 795.714844 316.234375 794.878906 316.066406 C 794.039062 315.902344 793.195312 315.816406 792.34375 315.816406 L 647.507812 315.816406 C 646.65625 315.816406 645.808594 315.902344 644.972656 316.066406 C 644.136719 316.234375 643.324219 316.480469 642.535156 316.808594 C 641.746094 317.136719 641 317.539062 640.289062 318.011719 C 639.582031 318.488281 638.925781 319.027344 638.320312 319.628906 C 637.71875 320.234375 637.179688 320.890625 636.703125 321.601562 C 636.230469 322.308594 635.828125 323.058594 635.503906 323.847656 C 635.175781 324.636719 634.929688 325.449219 634.761719 326.289062 C 634.59375 327.125 634.511719 327.972656 634.507812 328.824219 L 634.507812 334.167969 L 630.769531 364.136719 L 627.082031 364.136719 L 627.082031 356.703125 C 627.082031 356.210938 626.988281 355.734375 626.800781 355.28125 C 626.609375 354.824219 626.34375 354.421875 625.996094 354.074219 C 625.644531 353.726562 625.246094 353.457031 624.789062 353.269531 C 624.335938 353.078125 623.859375 352.984375 623.367188 352.984375 L 617.796875 352.984375 C 616.945312 352.984375 616.101562 353.070312 615.261719 353.238281 C 614.425781 353.40625 613.613281 353.652344 612.824219 353.980469 C 612.039062 354.304688 611.289062 354.707031 610.578125 355.183594 C 609.871094 355.65625 609.214844 356.195312 608.609375 356.800781 C 608.007812 357.402344 607.46875 358.058594 606.996094 358.769531 C 606.519531 359.480469 606.121094 360.230469 605.792969 361.019531 C 605.464844 361.808594 605.21875 362.621094 605.050781 363.457031 C 604.886719 364.292969 604.800781 365.140625 604.800781 365.996094 L 604.800781 369.710938 C 604.800781 370.566406 604.886719 371.410156 605.050781 372.25 C 605.21875 373.085938 605.464844 373.898438 605.792969 374.6875 C 606.121094 375.476562 606.519531 376.226562 606.996094 376.933594 C 607.46875 377.644531 608.007812 378.300781 608.609375 378.90625 C 609.214844 379.511719 609.871094 380.050781 610.578125 380.523438 C 611.289062 381 612.039062 381.398438 612.824219 381.726562 C 613.613281 382.054688 614.425781 382.300781 615.261719 382.46875 C 616.101562 382.636719 616.945312 382.71875 617.796875 382.71875 L 623.367188 382.71875 C 623.859375 382.71875 624.335938 382.625 624.789062 382.4375 C 625.246094 382.25 625.644531 381.980469 625.996094 381.632812 C 626.34375 381.285156 626.609375 380.882812 626.800781 380.425781 C 626.988281 379.96875 627.082031 379.496094 627.082031 379.003906 L 627.082031 371.570312 L 629.839844 371.570312 L 627.519531 390.15625 L 625.226562 390.15625 C 624.371094 390.15625 623.527344 390.238281 622.691406 390.40625 C 621.855469 390.574219 621.042969 390.820312 620.253906 391.148438 C 619.464844 391.476562 618.714844 391.875 618.007812 392.351562 C 617.296875 392.824219 616.640625 393.367188 616.039062 393.96875 C 615.433594 394.574219 614.898438 395.230469 614.421875 395.941406 C 613.949219 396.648438 613.546875 397.398438 613.21875 398.1875 C 612.894531 398.976562 612.648438 399.789062 612.480469 400.625 C 612.3125 401.464844 612.226562 402.308594 612.226562 403.164062 L 612.226562 449.625 L 608.511719 449.625 C 608.019531 449.625 607.546875 449.71875 607.09375 449.910156 C 606.636719 450.097656 606.234375 450.367188 605.886719 450.714844 C 605.539062 451.0625 605.269531 451.464844 605.082031 451.921875 C 604.894531 452.375 604.800781 452.851562 604.800781 453.34375 L 604.800781 468.210938 C 604.800781 468.703125 604.894531 469.175781 605.082031 469.632812 C 605.269531 470.089844 605.539062 470.492188 605.886719 470.839844 C 606.234375 471.1875 606.636719 471.457031 607.09375 471.644531 C 607.546875 471.832031 608.019531 471.925781 608.511719 471.925781 L 612.226562 471.925781 L 612.226562 481.21875 C 612.226562 482.074219 612.3125 482.917969 612.480469 483.757812 C 612.648438 484.59375 612.894531 485.40625 613.21875 486.195312 C 613.546875 486.984375 613.949219 487.734375 614.421875 488.445312 C 614.898438 489.152344 615.433594 489.8125 616.039062 490.414062 C 616.640625 491.019531 617.296875 491.558594 618.007812 492.03125 C 618.714844 492.507812 619.464844 492.90625 620.253906 493.234375 C 621.042969 493.5625 621.855469 493.808594 622.691406 493.976562 C 623.527344 494.144531 624.371094 494.226562 625.226562 494.230469 L 636.367188 494.230469 C 637.21875 494.226562 638.066406 494.144531 638.902344 493.976562 C 639.738281 493.808594 640.550781 493.5625 641.339844 493.234375 C 642.125 492.90625 642.875 492.507812 643.585938 492.03125 C 644.292969 491.558594 644.949219 491.019531 645.554688 490.414062 C 646.15625 489.8125 646.695312 489.152344 647.167969 488.445312 C 647.644531 487.734375 648.042969 486.984375 648.371094 486.195312 C 648.699219 485.40625 648.945312 484.59375 649.113281 483.757812 C 649.28125 482.917969 649.363281 482.074219 649.363281 481.21875 L 649.363281 471.925781 L 790.484375 471.925781 L 790.484375 481.21875 C 790.488281 482.074219 790.570312 482.917969 790.738281 483.757812 C 790.90625 484.59375 791.152344 485.40625 791.480469 486.195312 C 791.804688 486.984375 792.207031 487.734375 792.679688 488.445312 C 793.15625 489.152344 793.695312 489.8125 794.296875 490.414062 C 794.898438 491.019531 795.554688 491.558594 796.265625 492.03125 C 796.976562 492.507812 797.722656 492.90625 798.511719 493.234375 C 799.300781 493.5625 800.113281 493.808594 800.949219 493.976562 C 801.785156 494.144531 802.628906 494.226562 803.484375 494.230469 L 814.625 494.230469 C 815.476562 494.226562 816.324219 494.144531 817.160156 493.976562 C 817.996094 493.808594 818.808594 493.5625 819.597656 493.234375 C 820.382812 492.90625 821.132812 492.507812 821.84375 492.03125 C 822.550781 491.558594 823.207031 491.019531 823.8125 490.414062 C 824.414062 489.8125 824.953125 489.152344 825.425781 488.445312 C 825.902344 487.734375 826.300781 486.984375 826.628906 486.195312 C 826.957031 485.40625 827.203125 484.59375 827.371094 483.757812 C 827.539062 482.917969 827.621094 482.074219 827.621094 481.21875 L 827.621094 471.925781 L 831.335938 471.925781 C 831.828125 471.925781 832.300781 471.832031 832.757812 471.644531 C 833.210938 471.457031 833.613281 471.1875 833.960938 470.839844 C 834.308594 470.492188 834.578125 470.089844 834.765625 469.632812 C 834.957031 469.175781 835.050781 468.703125 835.050781 468.210938 L 835.050781 453.34375 C 835.050781 452.851562 834.957031 452.375 834.765625 451.921875 C 834.578125 451.464844 834.308594 451.0625 833.960938 450.714844 C 833.613281 450.367188 833.210938 450.097656 832.757812 449.910156 C 832.300781 449.71875 831.828125 449.625 831.335938 449.625 L 827.621094 449.625 L 827.621094 403.164062 C 827.621094 402.308594 827.539062 401.464844 827.371094 400.625 C 827.203125 399.789062 826.957031 398.976562 826.628906 398.1875 C 826.300781 397.398438 825.902344 396.648438 825.425781 395.941406 C 824.953125 395.230469 824.414062 394.574219 823.8125 393.96875 C 823.207031 393.367188 822.550781 392.824219 821.84375 392.351562 C 821.132812 391.875 820.382812 391.476562 819.597656 391.148438 C 818.808594 390.820312 817.996094 390.574219 817.160156 390.40625 C 816.324219 390.238281 815.476562 390.15625 814.625 390.15625 L 812.332031 390.15625 L 810.011719 371.570312 L 812.769531 371.570312 L 812.769531 379.003906 C 812.769531 379.496094 812.863281 379.96875 813.050781 380.425781 C 813.238281 380.882812 813.507812 381.285156 813.855469 381.632812 C 814.203125 381.980469 814.605469 382.25 815.058594 382.4375 C 815.515625 382.625 815.988281 382.71875 816.480469 382.71875 Z M 820.195312 360.417969 L 822.050781 360.417969 C 822.417969 360.417969 822.78125 360.457031 823.136719 360.527344 C 823.496094 360.597656 823.84375 360.703125 824.183594 360.84375 C 824.519531 360.984375 824.839844 361.15625 825.144531 361.359375 C 825.449219 361.5625 825.730469 361.792969 825.988281 362.054688 C 826.25 362.3125 826.480469 362.59375 826.683594 362.898438 C 826.886719 363.203125 827.058594 363.523438 827.195312 363.863281 C 827.335938 364.199219 827.441406 364.546875 827.515625 364.90625 C 827.585938 365.265625 827.621094 365.628906 827.621094 365.996094 L 827.621094 369.710938 C 827.621094 370.078125 827.585938 370.441406 827.515625 370.796875 C 827.441406 371.15625 827.335938 371.507812 827.195312 371.84375 C 827.058594 372.183594 826.886719 372.503906 826.683594 372.808594 C 826.480469 373.113281 826.25 373.394531 825.988281 373.652344 C 825.730469 373.910156 825.449219 374.140625 825.144531 374.34375 C 824.839844 374.550781 824.519531 374.722656 824.183594 374.859375 C 823.84375 375 823.496094 375.105469 823.136719 375.179688 C 822.78125 375.25 822.417969 375.285156 822.050781 375.285156 L 820.195312 375.285156 Z M 619.65625 375.285156 L 617.796875 375.285156 C 617.433594 375.285156 617.070312 375.25 616.710938 375.179688 C 616.351562 375.105469 616.003906 375 615.667969 374.859375 C 615.328125 374.722656 615.007812 374.550781 614.703125 374.34375 C 614.398438 374.140625 614.117188 373.910156 613.859375 373.652344 C 613.601562 373.394531 613.371094 373.113281 613.167969 372.808594 C 612.964844 372.503906 612.792969 372.183594 612.652344 371.84375 C 612.511719 371.507812 612.40625 371.15625 612.335938 370.796875 C 612.261719 370.441406 612.226562 370.078125 612.226562 369.710938 L 612.226562 365.996094 C 612.226562 365.628906 612.261719 365.265625 612.335938 364.90625 C 612.40625 364.546875 612.511719 364.199219 612.652344 363.863281 C 612.792969 363.523438 612.964844 363.203125 613.167969 362.898438 C 613.371094 362.59375 613.601562 362.3125 613.859375 362.054688 C 614.117188 361.792969 614.398438 361.5625 614.703125 361.359375 C 615.007812 361.15625 615.328125 360.984375 615.667969 360.84375 C 616.003906 360.703125 616.351562 360.597656 616.710938 360.527344 C 617.070312 360.457031 617.433594 360.417969 617.796875 360.417969 L 619.65625 360.417969 Z M 641.9375 328.824219 C 641.9375 328.457031 641.972656 328.097656 642.042969 327.738281 C 642.117188 327.378906 642.222656 327.03125 642.363281 326.691406 C 642.503906 326.355469 642.675781 326.03125 642.878906 325.726562 C 643.082031 325.425781 643.3125 325.140625 643.570312 324.882812 C 643.828125 324.625 644.109375 324.394531 644.414062 324.191406 C 644.71875 323.988281 645.039062 323.816406 645.375 323.675781 C 645.714844 323.535156 646.0625 323.429688 646.421875 323.355469 C 646.78125 323.285156 647.140625 323.25 647.507812 323.25 L 792.34375 323.25 C 792.707031 323.25 793.070312 323.285156 793.429688 323.355469 C 793.789062 323.429688 794.136719 323.535156 794.472656 323.675781 C 794.8125 323.816406 795.132812 323.988281 795.4375 324.191406 C 795.738281 324.394531 796.019531 324.625 796.28125 324.882812 C 796.539062 325.140625 796.769531 325.425781 796.972656 325.726562 C 797.175781 326.03125 797.347656 326.355469 797.488281 326.691406 C 797.628906 327.03125 797.734375 327.378906 797.804688 327.738281 C 797.875 328.097656 797.914062 328.457031 797.914062 328.824219 L 797.914062 330.683594 L 641.9375 330.683594 Z M 641.5 338.117188 L 798.347656 338.117188 L 804.847656 390.15625 L 635 390.15625 Z M 641.9375 481.21875 C 641.9375 481.585938 641.902344 481.949219 641.828125 482.308594 C 641.757812 482.667969 641.652344 483.015625 641.511719 483.351562 C 641.371094 483.691406 641.199219 484.011719 640.996094 484.316406 C 640.792969 484.621094 640.5625 484.902344 640.304688 485.160156 C 640.046875 485.417969 639.765625 485.652344 639.460938 485.855469 C 639.15625 486.058594 638.835938 486.230469 638.496094 486.371094 C 638.160156 486.511719 637.8125 486.617188 637.453125 486.6875 C 637.09375 486.757812 636.730469 486.796875 636.367188 486.796875 L 625.226562 486.796875 C 624.859375 486.796875 624.496094 486.757812 624.140625 486.6875 C 623.78125 486.617188 623.433594 486.511719 623.09375 486.371094 C 622.757812 486.230469 622.4375 486.058594 622.132812 485.855469 C 621.828125 485.652344 621.546875 485.417969 621.289062 485.160156 C 621.027344 484.902344 620.796875 484.621094 620.59375 484.316406 C 620.390625 484.011719 620.21875 483.691406 620.078125 483.351562 C 619.941406 483.015625 619.835938 482.667969 619.761719 482.308594 C 619.691406 481.949219 619.65625 481.585938 619.65625 481.21875 L 619.65625 471.925781 L 641.9375 471.925781 Z M 820.195312 481.21875 C 820.195312 481.585938 820.160156 481.949219 820.085938 482.308594 C 820.015625 482.667969 819.910156 483.015625 819.769531 483.351562 C 819.628906 483.691406 819.457031 484.011719 819.253906 484.316406 C 819.050781 484.621094 818.820312 484.902344 818.5625 485.160156 C 818.304688 485.417969 818.023438 485.652344 817.71875 485.855469 C 817.414062 486.058594 817.09375 486.230469 816.753906 486.371094 C 816.417969 486.511719 816.070312 486.617188 815.710938 486.6875 C 815.351562 486.757812 814.988281 486.796875 814.625 486.796875 L 803.484375 486.796875 C 803.117188 486.796875 802.753906 486.757812 802.398438 486.6875 C 802.039062 486.617188 801.691406 486.511719 801.351562 486.371094 C 801.015625 486.230469 800.695312 486.058594 800.390625 485.855469 C 800.085938 485.652344 799.804688 485.417969 799.546875 485.160156 C 799.289062 484.902344 799.054688 484.621094 798.851562 484.316406 C 798.648438 484.011719 798.476562 483.691406 798.339844 483.351562 C 798.199219 483.015625 798.09375 482.667969 798.019531 482.308594 C 797.949219 481.949219 797.914062 481.585938 797.914062 481.21875 L 797.914062 471.925781 L 820.195312 471.925781 Z M 827.621094 457.058594 L 827.621094 464.492188 L 612.226562 464.492188 L 612.226562 457.058594 Z M 814.625 397.589844 C 814.988281 397.589844 815.351562 397.625 815.710938 397.695312 C 816.070312 397.769531 816.417969 397.875 816.753906 398.015625 C 817.09375 398.152344 817.414062 398.324219 817.71875 398.53125 C 818.023438 398.734375 818.304688 398.964844 818.5625 399.222656 C 818.820312 399.480469 819.050781 399.761719 819.253906 400.066406 C 819.457031 400.371094 819.628906 400.691406 819.769531 401.03125 C 819.910156 401.367188 820.015625 401.71875 820.085938 402.078125 C 820.160156 402.433594 820.195312 402.796875 820.195312 403.164062 L 820.195312 449.625 L 619.65625 449.625 L 619.65625 403.164062 C 619.65625 402.796875 619.691406 402.433594 619.761719 402.078125 C 619.835938 401.71875 619.941406 401.367188 620.078125 401.03125 C 620.21875 400.691406 620.390625 400.371094 620.59375 400.066406 C 620.796875 399.761719 621.027344 399.480469 621.289062 399.222656 C 621.546875 398.964844 621.828125 398.734375 622.132812 398.53125 C 622.4375 398.324219 622.757812 398.152344 623.09375 398.015625 C 623.433594 397.875 623.78125 397.769531 624.140625 397.695312 C 624.496094 397.625 624.859375 397.589844 625.226562 397.589844 Z M 814.625 397.589844 " fill-opacity="1" fill-rule="nonzero"/></g></svg>