<svg xmlns="http://www.w3.org/2000/svg" xmlns:xlink="http://www.w3.org/1999/xlink" width="1920" zoomAndPan="magnify" viewBox="200 150 1040 510" height="1080" preserveAspectRatio="xMidYMid meet" version="1.0"><defs><clipPath id="562bdd4611"><path d="M 605.550781 345.773438 L 834.300781 345.773438 L 834.300781 524.273438 L 605.550781 524.273438 Z M 605.550781 345.773438 " clip-rule="nonzero"/></clipPath><clipPath id="7d7e424bfa"><path d="M 606 286.488281 L 706.953125 286.488281 L 706.953125 416.988281 L 606 416.988281 Z M 606 286.488281 " clip-rule="nonzero"/></clipPath><clipPath id="45626eab38"><path d="M 645 286.488281 L 706.953125 286.488281 L 706.953125 356 L 645 356 Z M 645 286.488281 " clip-rule="nonzero"/></clipPath></defs><path fill="#000000" d="M 646.402344 435.023438 C 645.792969 435.023438 645.1875 435.050781 644.582031 435.113281 C 643.976562 435.171875 643.375 435.261719 642.777344 435.378906 C 642.183594 435.5 641.59375 435.644531 641.011719 435.824219 C 640.429688 436 639.855469 436.203125 639.292969 436.4375 C 638.734375 436.671875 638.183594 436.929688 637.648438 437.21875 C 637.109375 437.503906 636.589844 437.816406 636.085938 438.15625 C 635.578125 438.492188 635.089844 438.855469 634.621094 439.242188 C 634.152344 439.628906 633.699219 440.035156 633.269531 440.464844 C 632.839844 440.894531 632.433594 441.347656 632.046875 441.816406 C 631.660156 442.289062 631.300781 442.777344 630.960938 443.28125 C 630.625 443.789062 630.3125 444.308594 630.023438 444.847656 C 629.738281 445.382812 629.476562 445.933594 629.246094 446.496094 C 629.011719 447.058594 628.808594 447.628906 628.632812 448.210938 C 628.457031 448.792969 628.308594 449.382812 628.1875 449.980469 C 628.070312 450.578125 627.980469 451.179688 627.921875 451.785156 C 627.863281 452.390625 627.832031 453 627.832031 453.605469 C 627.832031 454.214844 627.863281 454.824219 627.921875 455.429688 C 627.980469 456.035156 628.070312 456.636719 628.1875 457.234375 C 628.308594 457.828125 628.457031 458.417969 628.632812 459.003906 C 628.808594 459.585938 629.011719 460.15625 629.246094 460.71875 C 629.476562 461.28125 629.738281 461.832031 630.023438 462.367188 C 630.3125 462.90625 630.625 463.425781 630.960938 463.933594 C 631.300781 464.4375 631.660156 464.925781 632.046875 465.398438 C 632.433594 465.867188 632.839844 466.316406 633.269531 466.75 C 633.699219 467.179688 634.152344 467.585938 634.621094 467.972656 C 635.089844 468.359375 635.578125 468.722656 636.085938 469.058594 C 636.589844 469.398438 637.109375 469.710938 637.648438 469.996094 C 638.183594 470.285156 638.734375 470.542969 639.292969 470.777344 C 639.855469 471.011719 640.429688 471.214844 641.011719 471.390625 C 641.59375 471.566406 642.183594 471.714844 642.777344 471.835938 C 643.375 471.953125 643.976562 472.042969 644.582031 472.101562 C 645.1875 472.160156 645.792969 472.191406 646.402344 472.191406 C 647.007812 472.191406 647.617188 472.160156 648.222656 472.101562 C 648.824219 472.042969 649.425781 471.953125 650.023438 471.835938 C 650.621094 471.714844 651.207031 471.566406 651.789062 471.390625 C 652.371094 471.214844 652.945312 471.011719 653.507812 470.777344 C 654.070312 470.542969 654.617188 470.285156 655.152344 469.996094 C 655.691406 469.710938 656.210938 469.398438 656.71875 469.058594 C 657.222656 468.722656 657.710938 468.359375 658.179688 467.972656 C 658.652344 467.585938 659.101562 467.179688 659.53125 466.75 C 659.960938 466.316406 660.367188 465.867188 660.753906 465.398438 C 661.140625 464.925781 661.503906 464.4375 661.839844 463.933594 C 662.179688 463.425781 662.488281 462.90625 662.777344 462.367188 C 663.0625 461.832031 663.324219 461.28125 663.554688 460.71875 C 663.789062 460.15625 663.992188 459.585938 664.167969 459.003906 C 664.347656 458.417969 664.492188 457.828125 664.613281 457.234375 C 664.730469 456.636719 664.820312 456.035156 664.878906 455.429688 C 664.941406 454.824219 664.96875 454.214844 664.96875 453.605469 C 664.96875 453 664.9375 452.390625 664.878906 451.785156 C 664.816406 451.179688 664.726562 450.578125 664.609375 449.984375 C 664.488281 449.386719 664.34375 448.796875 664.164062 448.214844 C 663.988281 447.632812 663.785156 447.058594 663.550781 446.5 C 663.316406 445.9375 663.058594 445.386719 662.769531 444.851562 C 662.484375 444.3125 662.171875 443.792969 661.832031 443.285156 C 661.496094 442.78125 661.132812 442.292969 660.746094 441.824219 C 660.363281 441.351562 659.953125 440.902344 659.523438 440.472656 C 659.09375 440.042969 658.644531 439.632812 658.175781 439.246094 C 657.703125 438.859375 657.21875 438.5 656.710938 438.160156 C 656.207031 437.824219 655.6875 437.511719 655.148438 437.222656 C 654.613281 436.9375 654.066406 436.675781 653.503906 436.441406 C 652.941406 436.210938 652.371094 436.003906 651.789062 435.828125 C 651.207031 435.648438 650.617188 435.503906 650.023438 435.382812 C 649.425781 435.265625 648.824219 435.175781 648.21875 435.113281 C 647.613281 435.054688 647.007812 435.023438 646.402344 435.023438 Z M 646.402344 464.757812 C 645.667969 464.757812 644.945312 464.6875 644.226562 464.542969 C 643.507812 464.402344 642.8125 464.1875 642.136719 463.910156 C 641.460938 463.628906 640.820312 463.285156 640.210938 462.878906 C 639.601562 462.472656 639.039062 462.007812 638.523438 461.492188 C 638.003906 460.972656 637.542969 460.410156 637.136719 459.800781 C 636.730469 459.195312 636.386719 458.550781 636.109375 457.875 C 635.828125 457.199219 635.617188 456.5 635.472656 455.78125 C 635.332031 455.066406 635.257812 454.339844 635.257812 453.605469 C 635.257812 452.875 635.332031 452.148438 635.472656 451.433594 C 635.617188 450.714844 635.828125 450.015625 636.109375 449.339844 C 636.386719 448.664062 636.730469 448.019531 637.136719 447.410156 C 637.542969 446.804688 638.003906 446.238281 638.523438 445.722656 C 639.039062 445.203125 639.601562 444.742188 640.210938 444.335938 C 640.820312 443.929688 641.460938 443.585938 642.136719 443.304688 C 642.8125 443.023438 643.507812 442.8125 644.226562 442.671875 C 644.945312 442.527344 645.667969 442.457031 646.402344 442.457031 C 647.132812 442.457031 647.855469 442.527344 648.574219 442.671875 C 649.292969 442.8125 649.988281 443.023438 650.664062 443.304688 C 651.339844 443.585938 651.980469 443.929688 652.589844 444.335938 C 653.199219 444.742188 653.761719 445.203125 654.277344 445.722656 C 654.796875 446.238281 655.257812 446.804688 655.664062 447.410156 C 656.070312 448.019531 656.414062 448.664062 656.695312 449.339844 C 656.972656 450.015625 657.183594 450.714844 657.328125 451.433594 C 657.46875 452.148438 657.542969 452.875 657.542969 453.605469 C 657.542969 454.339844 657.46875 455.0625 657.324219 455.78125 C 657.183594 456.5 656.96875 457.195312 656.691406 457.871094 C 656.410156 458.546875 656.066406 459.191406 655.660156 459.800781 C 655.253906 460.40625 654.792969 460.96875 654.273438 461.488281 C 653.757812 462.003906 653.195312 462.46875 652.585938 462.875 C 651.980469 463.28125 651.335938 463.625 650.664062 463.90625 C 649.988281 464.1875 649.289062 464.398438 648.574219 464.542969 C 647.855469 464.683594 647.132812 464.757812 646.402344 464.757812 Z M 646.402344 464.757812 " fill-opacity="1" fill-rule="nonzero"/><path fill="#000000" d="M 794.824219 435.023438 C 794.214844 435.023438 793.609375 435.050781 793.003906 435.113281 C 792.398438 435.171875 791.796875 435.261719 791.199219 435.378906 C 790.605469 435.5 790.015625 435.644531 789.433594 435.824219 C 788.851562 436 788.277344 436.203125 787.71875 436.4375 C 787.15625 436.671875 786.605469 436.929688 786.070312 437.21875 C 785.535156 437.503906 785.011719 437.816406 784.507812 438.15625 C 784 438.492188 783.511719 438.855469 783.042969 439.242188 C 782.574219 439.628906 782.121094 440.035156 781.691406 440.464844 C 781.261719 440.894531 780.855469 441.347656 780.46875 441.816406 C 780.082031 442.289062 779.722656 442.777344 779.382812 443.28125 C 779.046875 443.789062 778.734375 444.308594 778.445312 444.847656 C 778.160156 445.382812 777.902344 445.933594 777.667969 446.496094 C 777.433594 447.058594 777.230469 447.628906 777.054688 448.210938 C 776.878906 448.792969 776.730469 449.382812 776.609375 449.980469 C 776.492188 450.578125 776.402344 451.179688 776.34375 451.785156 C 776.285156 452.390625 776.253906 453 776.253906 453.605469 C 776.253906 454.214844 776.285156 454.824219 776.34375 455.429688 C 776.402344 456.035156 776.492188 456.636719 776.609375 457.234375 C 776.730469 457.828125 776.878906 458.417969 777.054688 459.003906 C 777.230469 459.585938 777.433594 460.15625 777.667969 460.71875 C 777.902344 461.28125 778.160156 461.832031 778.445312 462.367188 C 778.734375 462.90625 779.046875 463.425781 779.382812 463.933594 C 779.722656 464.4375 780.082031 464.925781 780.46875 465.398438 C 780.855469 465.867188 781.261719 466.316406 781.691406 466.75 C 782.121094 467.179688 782.574219 467.585938 783.042969 467.972656 C 783.511719 468.359375 784 468.722656 784.507812 469.058594 C 785.011719 469.398438 785.535156 469.710938 786.070312 469.996094 C 786.605469 470.285156 787.15625 470.542969 787.71875 470.777344 C 788.277344 471.011719 788.851562 471.214844 789.433594 471.390625 C 790.015625 471.566406 790.605469 471.714844 791.199219 471.835938 C 791.796875 471.953125 792.398438 472.042969 793.003906 472.101562 C 793.609375 472.160156 794.214844 472.191406 794.824219 472.191406 C 795.429688 472.191406 796.039062 472.160156 796.644531 472.101562 C 797.25 472.042969 797.847656 471.953125 798.445312 471.835938 C 799.042969 471.714844 799.632812 471.566406 800.214844 471.390625 C 800.796875 471.214844 801.367188 471.011719 801.929688 470.777344 C 802.492188 470.542969 803.039062 470.285156 803.574219 469.996094 C 804.113281 469.710938 804.632812 469.398438 805.140625 469.058594 C 805.644531 468.722656 806.132812 468.359375 806.601562 467.972656 C 807.074219 467.585938 807.523438 467.179688 807.953125 466.75 C 808.382812 466.316406 808.789062 465.867188 809.175781 465.398438 C 809.5625 464.925781 809.925781 464.4375 810.261719 463.933594 C 810.601562 463.425781 810.914062 462.90625 811.199219 462.367188 C 811.484375 461.832031 811.746094 461.28125 811.976562 460.71875 C 812.210938 460.15625 812.414062 459.585938 812.59375 459.003906 C 812.769531 458.417969 812.914062 457.828125 813.035156 457.234375 C 813.152344 456.636719 813.242188 456.035156 813.300781 455.429688 C 813.363281 454.824219 813.390625 454.214844 813.390625 453.605469 C 813.390625 453 813.359375 452.390625 813.300781 451.785156 C 813.238281 451.179688 813.148438 450.578125 813.03125 449.984375 C 812.910156 449.386719 812.765625 448.796875 812.585938 448.214844 C 812.410156 447.632812 812.207031 447.058594 811.972656 446.5 C 811.738281 445.9375 811.480469 445.386719 811.191406 444.851562 C 810.90625 444.3125 810.59375 443.792969 810.253906 443.285156 C 809.917969 442.78125 809.554688 442.292969 809.171875 441.824219 C 808.785156 441.351562 808.375 440.902344 807.945312 440.472656 C 807.515625 440.042969 807.066406 439.632812 806.597656 439.246094 C 806.128906 438.859375 805.640625 438.5 805.132812 438.160156 C 804.628906 437.824219 804.109375 437.511719 803.570312 437.222656 C 803.035156 436.9375 802.488281 436.675781 801.925781 436.441406 C 801.363281 436.210938 800.792969 436.003906 800.210938 435.828125 C 799.628906 435.648438 799.039062 435.503906 798.445312 435.382812 C 797.847656 435.265625 797.246094 435.175781 796.640625 435.113281 C 796.039062 435.054688 795.429688 435.023438 794.824219 435.023438 Z M 794.824219 464.757812 C 794.089844 464.757812 793.367188 464.6875 792.648438 464.542969 C 791.933594 464.402344 791.234375 464.1875 790.558594 463.910156 C 789.882812 463.628906 789.242188 463.285156 788.632812 462.878906 C 788.023438 462.472656 787.460938 462.007812 786.945312 461.492188 C 786.425781 460.972656 785.964844 460.410156 785.558594 459.800781 C 785.152344 459.195312 784.808594 458.550781 784.53125 457.875 C 784.25 457.199219 784.039062 456.5 783.894531 455.78125 C 783.753906 455.066406 783.683594 454.339844 783.683594 453.605469 C 783.683594 452.875 783.753906 452.148438 783.894531 451.433594 C 784.039062 450.714844 784.25 450.015625 784.53125 449.339844 C 784.808594 448.664062 785.152344 448.019531 785.558594 447.410156 C 785.964844 446.804688 786.425781 446.238281 786.945312 445.722656 C 787.460938 445.203125 788.023438 444.742188 788.632812 444.335938 C 789.242188 443.929688 789.882812 443.585938 790.558594 443.304688 C 791.234375 443.023438 791.933594 442.8125 792.648438 442.671875 C 793.367188 442.527344 794.089844 442.457031 794.824219 442.457031 C 795.554688 442.457031 796.277344 442.527344 796.996094 442.671875 C 797.714844 442.8125 798.410156 443.023438 799.085938 443.304688 C 799.761719 443.585938 800.402344 443.929688 801.011719 444.335938 C 801.621094 444.742188 802.183594 445.203125 802.699219 445.722656 C 803.21875 446.238281 803.679688 446.804688 804.085938 447.410156 C 804.492188 448.019531 804.835938 448.664062 805.117188 449.339844 C 805.394531 450.015625 805.605469 450.714844 805.75 451.433594 C 805.894531 452.148438 805.964844 452.875 805.964844 453.605469 C 805.964844 454.339844 805.890625 455.0625 805.746094 455.78125 C 805.605469 456.5 805.394531 457.195312 805.113281 457.871094 C 804.832031 458.546875 804.488281 459.191406 804.082031 459.800781 C 803.675781 460.40625 803.214844 460.972656 802.695312 461.488281 C 802.179688 462.007812 801.617188 462.46875 801.007812 462.875 C 800.402344 463.28125 799.761719 463.625 799.085938 463.90625 C 798.410156 464.1875 797.710938 464.398438 796.996094 464.542969 C 796.277344 464.683594 795.554688 464.757812 794.824219 464.757812 Z M 794.824219 464.757812 " fill-opacity="1" fill-rule="nonzero"/><path fill="#000000" d="M 757.8125 435.023438 L 683.539062 435.023438 C 683.273438 435.023438 683.015625 435.050781 682.757812 435.105469 C 682.5 435.160156 682.25 435.242188 682.011719 435.351562 C 681.769531 435.460938 681.542969 435.59375 681.332031 435.75 C 681.121094 435.90625 680.929688 436.082031 680.753906 436.28125 C 680.578125 436.476562 680.429688 436.691406 680.300781 436.921875 C 680.171875 437.148438 680.066406 437.390625 679.988281 437.644531 C 679.910156 437.894531 679.863281 438.152344 679.839844 438.414062 C 679.816406 438.675781 679.820312 438.9375 679.851562 439.199219 L 683.566406 468.9375 C 683.621094 469.386719 683.757812 469.808594 683.96875 470.210938 C 684.179688 470.613281 684.453125 470.960938 684.792969 471.261719 C 685.132812 471.5625 685.515625 471.792969 685.9375 471.953125 C 686.359375 472.113281 686.800781 472.191406 687.25 472.191406 L 754.097656 472.191406 C 754.550781 472.191406 754.988281 472.113281 755.414062 471.953125 C 755.835938 471.792969 756.214844 471.5625 756.554688 471.261719 C 756.894531 470.960938 757.171875 470.613281 757.382812 470.210938 C 757.59375 469.808594 757.726562 469.386719 757.785156 468.9375 L 761.496094 439.199219 C 761.53125 438.9375 761.535156 438.675781 761.511719 438.414062 C 761.488281 438.152344 761.4375 437.894531 761.359375 437.644531 C 761.28125 437.390625 761.179688 437.148438 761.050781 436.921875 C 760.921875 436.691406 760.769531 436.476562 760.597656 436.28125 C 760.421875 436.082031 760.230469 435.90625 760.015625 435.75 C 759.804688 435.59375 759.578125 435.460938 759.339844 435.351562 C 759.097656 435.242188 758.851562 435.160156 758.59375 435.105469 C 758.335938 435.050781 758.074219 435.023438 757.8125 435.023438 Z M 750.820312 464.757812 L 690.53125 464.757812 L 687.746094 442.457031 L 753.605469 442.457031 Z M 750.820312 464.757812 " fill-opacity="1" fill-rule="nonzero"/><g clip-path="url(#562bdd4611)"><path fill="#000000" d="M 817.230469 412.71875 L 822.800781 412.71875 C 823.65625 412.71875 824.5 412.636719 825.335938 412.46875 C 826.171875 412.300781 826.984375 412.054688 827.773438 411.726562 C 828.5625 411.398438 829.3125 411 830.019531 410.523438 C 830.730469 410.050781 831.386719 409.511719 831.988281 408.90625 C 832.59375 408.300781 833.128906 407.644531 833.605469 406.933594 C 834.078125 406.226562 834.480469 405.476562 834.808594 404.6875 C 835.132812 403.898438 835.378906 403.085938 835.546875 402.25 C 835.714844 401.410156 835.800781 400.566406 835.800781 399.710938 L 835.800781 395.996094 C 835.800781 395.140625 835.714844 394.292969 835.546875 393.457031 C 835.378906 392.621094 835.132812 391.808594 834.808594 391.019531 C 834.480469 390.230469 834.078125 389.480469 833.605469 388.769531 C 833.128906 388.058594 832.59375 387.402344 831.988281 386.800781 C 831.386719 386.195312 830.730469 385.65625 830.019531 385.183594 C 829.3125 384.707031 828.5625 384.304688 827.773438 383.980469 C 826.984375 383.652344 826.171875 383.40625 825.335938 383.238281 C 824.5 383.070312 823.65625 382.984375 822.800781 382.984375 L 817.230469 382.984375 C 816.738281 382.984375 816.265625 383.078125 815.808594 383.269531 C 815.355469 383.457031 814.953125 383.726562 814.605469 384.074219 C 814.257812 384.421875 813.988281 384.824219 813.800781 385.28125 C 813.613281 385.734375 813.519531 386.210938 813.519531 386.703125 L 813.519531 394.136719 L 809.832031 394.136719 L 806.089844 364.167969 L 806.089844 358.824219 C 806.089844 357.972656 806.003906 357.125 805.839844 356.289062 C 805.671875 355.449219 805.425781 354.636719 805.097656 353.847656 C 804.769531 353.058594 804.371094 352.308594 803.894531 351.601562 C 803.421875 350.890625 802.882812 350.234375 802.277344 349.628906 C 801.675781 349.027344 801.019531 348.488281 800.308594 348.011719 C 799.601562 347.539062 798.851562 347.136719 798.0625 346.808594 C 797.277344 346.480469 796.464844 346.234375 795.628906 346.066406 C 794.789062 345.902344 793.945312 345.816406 793.09375 345.816406 L 648.257812 345.816406 C 647.40625 345.816406 646.558594 345.902344 645.722656 346.066406 C 644.886719 346.234375 644.074219 346.480469 643.285156 346.808594 C 642.496094 347.136719 641.75 347.539062 641.039062 348.011719 C 640.332031 348.488281 639.675781 349.027344 639.070312 349.628906 C 638.46875 350.234375 637.929688 350.890625 637.453125 351.601562 C 636.980469 352.308594 636.578125 353.058594 636.253906 353.847656 C 635.925781 354.636719 635.679688 355.449219 635.511719 356.289062 C 635.34375 357.125 635.261719 357.972656 635.257812 358.824219 L 635.257812 364.167969 L 631.519531 394.136719 L 627.832031 394.136719 L 627.832031 386.703125 C 627.832031 386.210938 627.738281 385.734375 627.550781 385.28125 C 627.359375 384.824219 627.09375 384.421875 626.746094 384.074219 C 626.394531 383.726562 625.996094 383.457031 625.539062 383.269531 C 625.085938 383.078125 624.609375 382.984375 624.117188 382.984375 L 618.546875 382.984375 C 617.695312 382.984375 616.851562 383.070312 616.011719 383.238281 C 615.175781 383.40625 614.363281 383.652344 613.574219 383.980469 C 612.789062 384.304688 612.039062 384.707031 611.328125 385.183594 C 610.621094 385.65625 609.964844 386.195312 609.359375 386.800781 C 608.757812 387.402344 608.21875 388.058594 607.746094 388.769531 C 607.269531 389.480469 606.871094 390.230469 606.542969 391.019531 C 606.214844 391.808594 605.96875 392.621094 605.800781 393.457031 C 605.636719 394.292969 605.550781 395.140625 605.550781 395.996094 L 605.550781 399.710938 C 605.550781 400.566406 605.636719 401.410156 605.800781 402.25 C 605.96875 403.085938 606.214844 403.898438 606.542969 404.6875 C 606.871094 405.476562 607.269531 406.226562 607.746094 406.933594 C 608.21875 407.644531 608.757812 408.300781 609.359375 408.90625 C 609.964844 409.511719 610.621094 410.050781 611.328125 410.523438 C 612.039062 411 612.789062 411.398438 613.574219 411.726562 C 614.363281 412.054688 615.175781 412.300781 616.011719 412.46875 C 616.851562 412.636719 617.695312 412.71875 618.546875 412.71875 L 624.117188 412.71875 C 624.609375 412.71875 625.085938 412.625 625.539062 412.4375 C 625.996094 412.25 626.394531 411.980469 626.746094 411.632812 C 627.09375 411.285156 627.359375 410.882812 627.550781 410.425781 C 627.738281 409.96875 627.832031 409.496094 627.832031 409.003906 L 627.832031 401.570312 L 630.589844 401.570312 L 628.269531 420.15625 L 625.976562 420.15625 C 625.121094 420.15625 624.277344 420.238281 623.441406 420.40625 C 622.605469 420.574219 621.792969 420.820312 621.003906 421.148438 C 620.214844 421.476562 619.464844 421.875 618.757812 422.351562 C 618.046875 422.824219 617.390625 423.367188 616.789062 423.96875 C 616.183594 424.574219 615.648438 425.230469 615.171875 425.941406 C 614.699219 426.648438 614.296875 427.398438 613.96875 428.1875 C 613.644531 428.976562 613.398438 429.789062 613.230469 430.625 C 613.0625 431.464844 612.976562 432.308594 612.976562 433.164062 L 612.976562 479.625 L 609.261719 479.625 C 608.769531 479.625 608.296875 479.71875 607.84375 479.910156 C 607.386719 480.097656 606.984375 480.367188 606.636719 480.714844 C 606.289062 481.0625 606.019531 481.464844 605.832031 481.921875 C 605.644531 482.375 605.550781 482.851562 605.550781 483.34375 L 605.550781 498.210938 C 605.550781 498.703125 605.644531 499.175781 605.832031 499.632812 C 606.019531 500.089844 606.289062 500.492188 606.636719 500.839844 C 606.984375 501.1875 607.386719 501.457031 607.84375 501.644531 C 608.296875 501.832031 608.769531 501.925781 609.261719 501.925781 L 612.976562 501.925781 L 612.976562 511.21875 C 612.976562 512.074219 613.0625 512.917969 613.230469 513.757812 C 613.398438 514.59375 613.644531 515.40625 613.96875 516.195312 C 614.296875 516.984375 614.699219 517.734375 615.171875 518.445312 C 615.648438 519.152344 616.183594 519.8125 616.789062 520.414062 C 617.390625 521.019531 618.046875 521.558594 618.757812 522.03125 C 619.464844 522.507812 620.214844 522.90625 621.003906 523.234375 C 621.792969 523.5625 622.605469 523.808594 623.441406 523.976562 C 624.277344 524.144531 625.121094 524.226562 625.976562 524.230469 L 637.117188 524.230469 C 637.96875 524.226562 638.816406 524.144531 639.652344 523.976562 C 640.488281 523.808594 641.300781 523.5625 642.089844 523.234375 C 642.875 522.90625 643.625 522.507812 644.335938 522.03125 C 645.042969 521.558594 645.699219 521.019531 646.304688 520.414062 C 646.90625 519.8125 647.445312 519.152344 647.917969 518.445312 C 648.394531 517.734375 648.792969 516.984375 649.121094 516.195312 C 649.449219 515.40625 649.695312 514.59375 649.863281 513.757812 C 650.03125 512.917969 650.113281 512.074219 650.113281 511.21875 L 650.113281 501.925781 L 791.234375 501.925781 L 791.234375 511.21875 C 791.238281 512.074219 791.320312 512.917969 791.488281 513.757812 C 791.65625 514.59375 791.902344 515.40625 792.230469 516.195312 C 792.554688 516.984375 792.957031 517.734375 793.429688 518.445312 C 793.90625 519.152344 794.445312 519.8125 795.046875 520.414062 C 795.648438 521.019531 796.304688 521.558594 797.015625 522.03125 C 797.726562 522.507812 798.472656 522.90625 799.261719 523.234375 C 800.050781 523.5625 800.863281 523.808594 801.699219 523.976562 C 802.535156 524.144531 803.378906 524.226562 804.234375 524.230469 L 815.375 524.230469 C 816.226562 524.226562 817.074219 524.144531 817.910156 523.976562 C 818.746094 523.808594 819.558594 523.5625 820.347656 523.234375 C 821.132812 522.90625 821.882812 522.507812 822.59375 522.03125 C 823.300781 521.558594 823.957031 521.019531 824.5625 520.414062 C 825.164062 519.8125 825.703125 519.152344 826.175781 518.445312 C 826.652344 517.734375 827.050781 516.984375 827.378906 516.195312 C 827.707031 515.40625 827.953125 514.59375 828.121094 513.757812 C 828.289062 512.917969 828.371094 512.074219 828.371094 511.21875 L 828.371094 501.925781 L 832.085938 501.925781 C 832.578125 501.925781 833.050781 501.832031 833.507812 501.644531 C 833.960938 501.457031 834.363281 501.1875 834.710938 500.839844 C 835.058594 500.492188 835.328125 500.089844 835.515625 499.632812 C 835.707031 499.175781 835.800781 498.703125 835.800781 498.210938 L 835.800781 483.34375 C 835.800781 482.851562 835.707031 482.375 835.515625 481.921875 C 835.328125 481.464844 835.058594 481.0625 834.710938 480.714844 C 834.363281 480.367188 833.960938 480.097656 833.507812 479.910156 C 833.050781 479.71875 832.578125 479.625 832.085938 479.625 L 828.371094 479.625 L 828.371094 433.164062 C 828.371094 432.308594 828.289062 431.464844 828.121094 430.625 C 827.953125 429.789062 827.707031 428.976562 827.378906 428.1875 C 827.050781 427.398438 826.652344 426.648438 826.175781 425.941406 C 825.703125 425.230469 825.164062 424.574219 824.5625 423.96875 C 823.957031 423.367188 823.300781 422.824219 822.59375 422.351562 C 821.882812 421.875 821.132812 421.476562 820.347656 421.148438 C 819.558594 420.820312 818.746094 420.574219 817.910156 420.40625 C 817.074219 420.238281 816.226562 420.15625 815.375 420.15625 L 813.082031 420.15625 L 810.761719 401.570312 L 813.519531 401.570312 L 813.519531 409.003906 C 813.519531 409.496094 813.613281 409.96875 813.800781 410.425781 C 813.988281 410.882812 814.257812 411.285156 814.605469 411.632812 C 814.953125 411.980469 815.355469 412.25 815.808594 412.4375 C 816.265625 412.625 816.738281 412.71875 817.230469 412.71875 Z M 820.945312 390.417969 L 822.800781 390.417969 C 823.167969 390.417969 823.53125 390.457031 823.886719 390.527344 C 824.246094 390.597656 824.59375 390.703125 824.933594 390.84375 C 825.269531 390.984375 825.589844 391.15625 825.894531 391.359375 C 826.199219 391.5625 826.480469 391.792969 826.738281 392.054688 C 827 392.3125 827.230469 392.59375 827.433594 392.898438 C 827.636719 393.203125 827.808594 393.523438 827.945312 393.863281 C 828.085938 394.199219 828.191406 394.546875 828.265625 394.90625 C 828.335938 395.265625 828.371094 395.628906 828.371094 395.996094 L 828.371094 399.710938 C 828.371094 400.078125 828.335938 400.441406 828.265625 400.796875 C 828.191406 401.15625 828.085938 401.507812 827.945312 401.84375 C 827.808594 402.183594 827.636719 402.503906 827.433594 402.808594 C 827.230469 403.113281 827 403.394531 826.738281 403.652344 C 826.480469 403.910156 826.199219 404.140625 825.894531 404.34375 C 825.589844 404.550781 825.269531 404.722656 824.933594 404.859375 C 824.59375 405 824.246094 405.105469 823.886719 405.179688 C 823.53125 405.25 823.167969 405.285156 822.800781 405.285156 L 820.945312 405.285156 Z M 620.40625 405.285156 L 618.546875 405.285156 C 618.183594 405.285156 617.820312 405.25 617.460938 405.179688 C 617.101562 405.105469 616.753906 405 616.417969 404.859375 C 616.078125 404.722656 615.757812 404.550781 615.453125 404.34375 C 615.148438 404.140625 614.867188 403.910156 614.609375 403.652344 C 614.351562 403.394531 614.121094 403.113281 613.917969 402.808594 C 613.714844 402.503906 613.542969 402.183594 613.402344 401.84375 C 613.261719 401.507812 613.15625 401.15625 613.085938 400.796875 C 613.011719 400.441406 612.976562 400.078125 612.976562 399.710938 L 612.976562 395.996094 C 612.976562 395.628906 613.011719 395.265625 613.085938 394.90625 C 613.15625 394.546875 613.261719 394.199219 613.402344 393.863281 C 613.542969 393.523438 613.714844 393.203125 613.917969 392.898438 C 614.121094 392.59375 614.351562 392.3125 614.609375 392.054688 C 614.867188 391.792969 615.148438 391.5625 615.453125 391.359375 C 615.757812 391.15625 616.078125 390.984375 616.417969 390.84375 C 616.753906 390.703125 617.101562 390.597656 617.460938 390.527344 C 617.820312 390.457031 618.183594 390.417969 618.546875 390.417969 L 620.40625 390.417969 Z M 642.6875 358.824219 C 642.6875 358.457031 642.722656 358.097656 642.792969 357.738281 C 642.867188 357.378906 642.972656 357.03125 643.113281 356.691406 C 643.253906 356.355469 643.425781 356.03125 643.628906 355.726562 C 643.832031 355.425781 644.0625 355.140625 644.320312 354.882812 C 644.578125 354.625 644.859375 354.394531 645.164062 354.191406 C 645.46875 353.988281 645.789062 353.816406 646.125 353.675781 C 646.464844 353.535156 646.8125 353.429688 647.171875 353.355469 C 647.53125 353.285156 647.890625 353.25 648.257812 353.25 L 793.09375 353.25 C 793.457031 353.25 793.820312 353.285156 794.179688 353.355469 C 794.539062 353.429688 794.886719 353.535156 795.222656 353.675781 C 795.5625 353.816406 795.882812 353.988281 796.1875 354.191406 C 796.488281 354.394531 796.769531 354.625 797.03125 354.882812 C 797.289062 355.140625 797.519531 355.425781 797.722656 355.726562 C 797.925781 356.03125 798.097656 356.355469 798.238281 356.691406 C 798.378906 357.03125 798.484375 357.378906 798.554688 357.738281 C 798.625 358.097656 798.664062 358.457031 798.664062 358.824219 L 798.664062 360.683594 L 642.6875 360.683594 Z M 642.25 368.117188 L 799.097656 368.117188 L 805.597656 420.15625 L 635.75 420.15625 Z M 642.6875 511.21875 C 642.6875 511.585938 642.652344 511.949219 642.578125 512.308594 C 642.507812 512.667969 642.402344 513.015625 642.261719 513.351562 C 642.121094 513.691406 641.949219 514.011719 641.746094 514.316406 C 641.542969 514.621094 641.3125 514.902344 641.054688 515.160156 C 640.796875 515.417969 640.515625 515.652344 640.210938 515.855469 C 639.90625 516.058594 639.585938 516.230469 639.246094 516.371094 C 638.910156 516.511719 638.5625 516.617188 638.203125 516.6875 C 637.84375 516.757812 637.480469 516.796875 637.117188 516.796875 L 625.976562 516.796875 C 625.609375 516.796875 625.246094 516.757812 624.890625 516.6875 C 624.53125 516.617188 624.183594 516.511719 623.84375 516.371094 C 623.507812 516.230469 623.1875 516.058594 622.882812 515.855469 C 622.578125 515.652344 622.296875 515.417969 622.039062 515.160156 C 621.777344 514.902344 621.546875 514.621094 621.34375 514.316406 C 621.140625 514.011719 620.96875 513.691406 620.828125 513.351562 C 620.691406 513.015625 620.585938 512.667969 620.511719 512.308594 C 620.441406 511.949219 620.40625 511.585938 620.40625 511.21875 L 620.40625 501.925781 L 642.6875 501.925781 Z M 820.945312 511.21875 C 820.945312 511.585938 820.910156 511.949219 820.835938 512.308594 C 820.765625 512.667969 820.660156 513.015625 820.519531 513.351562 C 820.378906 513.691406 820.207031 514.011719 820.003906 514.316406 C 819.800781 514.621094 819.570312 514.902344 819.3125 515.160156 C 819.054688 515.417969 818.773438 515.652344 818.46875 515.855469 C 818.164062 516.058594 817.84375 516.230469 817.503906 516.371094 C 817.167969 516.511719 816.820312 516.617188 816.460938 516.6875 C 816.101562 516.757812 815.738281 516.796875 815.375 516.796875 L 804.234375 516.796875 C 803.867188 516.796875 803.503906 516.757812 803.148438 516.6875 C 802.789062 516.617188 802.441406 516.511719 802.101562 516.371094 C 801.765625 516.230469 801.445312 516.058594 801.140625 515.855469 C 800.835938 515.652344 800.554688 515.417969 800.296875 515.160156 C 800.039062 514.902344 799.804688 514.621094 799.601562 514.316406 C 799.398438 514.011719 799.226562 513.691406 799.089844 513.351562 C 798.949219 513.015625 798.84375 512.667969 798.769531 512.308594 C 798.699219 511.949219 798.664062 511.585938 798.664062 511.21875 L 798.664062 501.925781 L 820.945312 501.925781 Z M 828.371094 487.058594 L 828.371094 494.492188 L 612.976562 494.492188 L 612.976562 487.058594 Z M 815.375 427.589844 C 815.738281 427.589844 816.101562 427.625 816.460938 427.695312 C 816.820312 427.769531 817.167969 427.875 817.503906 428.015625 C 817.84375 428.152344 818.164062 428.324219 818.46875 428.53125 C 818.773438 428.734375 819.054688 428.964844 819.3125 429.222656 C 819.570312 429.480469 819.800781 429.761719 820.003906 430.066406 C 820.207031 430.371094 820.378906 430.691406 820.519531 431.03125 C 820.660156 431.367188 820.765625 431.71875 820.835938 432.078125 C 820.910156 432.433594 820.945312 432.796875 820.945312 433.164062 L 820.945312 479.625 L 620.40625 479.625 L 620.40625 433.164062 C 620.40625 432.796875 620.441406 432.433594 620.511719 432.078125 C 620.585938 431.71875 620.691406 431.367188 620.828125 431.03125 C 620.96875 430.691406 621.140625 430.371094 621.34375 430.066406 C 621.546875 429.761719 621.777344 429.480469 622.039062 429.222656 C 622.296875 428.964844 622.578125 428.734375 622.882812 428.53125 C 623.1875 428.324219 623.507812 428.152344 623.84375 428.015625 C 624.183594 427.875 624.53125 427.769531 624.890625 427.695312 C 625.246094 427.625 625.609375 427.589844 625.976562 427.589844 Z M 815.375 427.589844 " fill-opacity="1" fill-rule="nonzero"/></g><path fill="#ffffff" d="M 704.863281 415.21875 L 607.792969 415.21875 L 607.792969 288.203125 L 665.660156 288.203125 L 704.863281 329.296875 Z M 704.863281 415.21875 " fill-opacity="1" fill-rule="nonzero"/><g clip-path="url(#7d7e424bfa)"><path stroke-linecap="round" transform="matrix(-0.933378, 0, 0, -0.933943, 131.77002, 634.098204)" fill="none" stroke-linejoin="round" d="M -613.999331 234.360508 L -510.000364 234.360508 L -510.000364 370.359781 L -571.997978 370.359781 L -613.999331 326.359524 Z M -613.999331 234.360508 " stroke="#000000" stroke-width="3.75" stroke-opacity="1" stroke-miterlimit="4"/></g><g clip-path="url(#45626eab38)"><path stroke-linecap="butt" transform="matrix(-0.933378, 0, 0, -0.933943, 131.77002, 634.098204)" fill="none" stroke-linejoin="miter" d="M -613.748227 325.518835 L -571.52925 319.249216 L -571.947757 370.665106 " stroke="#000000" stroke-width="3.75" stroke-opacity="1" stroke-miterlimit="4"/></g><path stroke-linecap="butt" transform="matrix(-0.933378, 0, 0, -0.933943, 131.77002, 634.098204)" fill="none" stroke-linejoin="miter" d="M -600.000275 252.357952 L -525.999883 252.357952 " stroke="#000000" stroke-width="2.775" stroke-opacity="1" stroke-miterlimit="4"/><path stroke-linecap="butt" transform="matrix(-0.933378, 0, 0, -0.933943, 131.77002, 634.098204)" fill="none" stroke-linejoin="miter" d="M -600.000275 264.361824 L -525.999883 264.361824 " stroke="#000000" stroke-width="2.775" stroke-opacity="1" stroke-miterlimit="4"/><path stroke-linecap="butt" transform="matrix(-0.933378, 0, 0, -0.933943, 131.77002, 634.098204)" fill="none" stroke-linejoin="miter" d="M -600.000275 276.361514 L -525.999883 276.361514 " stroke="#000000" stroke-width="2.775" stroke-opacity="1" stroke-miterlimit="4"/><path stroke-linecap="butt" transform="matrix(-0.933378, 0, 0, -0.933943, 131.77002, 634.098204)" fill="none" stroke-linejoin="miter" d="M -600.000275 288.361204 L -525.999883 288.361204 " stroke="#000000" stroke-width="2.775" stroke-opacity="1" stroke-miterlimit="4"/><path stroke-linecap="butt" transform="matrix(-0.933378, 0, 0, -0.933943, 131.77002, 634.098204)" fill="none" stroke-linejoin="miter" d="M -600.000275 300.360893 L -525.999883 300.360893 " stroke="#000000" stroke-width="2.775" stroke-opacity="1" stroke-miterlimit="4"/><path stroke-linecap="butt" transform="matrix(-0.933378, 0, 0, -0.933943, 131.77002, 634.098204)" fill="none" stroke-linejoin="miter" d="M -600.000275 312.360583 L -525.999883 312.360583 " stroke="#000000" stroke-width="2.775" stroke-opacity="1" stroke-miterlimit="4"/><path stroke-linecap="butt" transform="matrix(-0.933378, 0, 0, -0.933943, 131.77002, 634.098204)" fill="none" stroke-linejoin="miter" d="M -566.000774 324.360273 L -525.999883 324.360273 " stroke="#000000" stroke-width="2.775" stroke-opacity="1" stroke-miterlimit="4"/><path stroke-linecap="butt" transform="matrix(-0.933378, 0, 0, -0.933943, 131.77002, 634.098204)" fill="none" stroke-linejoin="miter" d="M -566.000774 336.359963 L -525.999883 336.359963 " stroke="#000000" stroke-width="2.775" stroke-opacity="1" stroke-miterlimit="4"/><path stroke-linecap="butt" transform="matrix(-0.933378, 0, 0, -0.933943, 131.77002, 634.098204)" fill="none" stroke-linejoin="miter" d="M -565.971478 348.359652 L -525.999883 348.359652 " stroke="#000000" stroke-width="2.775" stroke-opacity="1" stroke-miterlimit="4"/></svg>